<?xml version="1.0" encoding="UTF-8" standalone="no"?><!DOCTYPE svg PUBLIC "-//W3C//DTD SVG 1.1//EN" "http://www.w3.org/Graphics/SVG/1.1/DTD/svg11.dtd"><svg width="100%" height="100%" viewBox="0 0 400 400" version="1.1" xmlns="http://www.w3.org/2000/svg" xmlns:xlink="http://www.w3.org/1999/xlink" xml:space="preserve" style="fill-rule:evenodd;clip-rule:evenodd;stroke-linejoin:round;stroke-miterlimit:1.41421;"><path d="M93.838,354.006c37.736,39.876 90.146,53.823 157.229,41.841c24.002,-4.411 47.656,-18.367 70.962,-41.869c15.333,-15.461 30.651,-34.618 45.953,-57.47c41.011,-61.145 42.625,-117.199 4.842,-168.161c-9.911,-13.509 -22.288,-27.623 -37.131,-42.343c-37.725,-37.413 -74.911,-55.889 -111.555,-55.428c-36.644,0.461 -77.071,16.797 -121.282,49.008c-17.194,12.39 -30.697,23.532 -40.51,33.428c-25.146,25.356 -38.586,51.896 -40.318,79.619c-1.134,23.409 5.457,53.253 19.774,89.531c7.473,19.678 24.818,43.626 52.036,71.844Z" style="fill:#1f5eff;"/><path d="M321.482,288.463c36.479,-38.91 46.96,-90.544 31.445,-154.902c-5.672,-23.019 -20.58,-45.147 -44.724,-66.383c-15.884,-13.972 -35.351,-27.713 -58.4,-41.225c-61.677,-36.219 -116.129,-34.529 -163.355,5.07c-12.524,10.396 -25.492,23.218 -38.905,38.467c-34.089,38.757 -49.847,75.89 -47.272,111.399c2.575,35.509 20.765,73.764 54.569,114.766c13.013,15.954 24.603,28.402 34.769,37.343c26.05,22.913 52.567,34.404 79.552,34.474c22.766,-0.26 51.324,-8.385 85.674,-24.375c18.648,-8.39 40.864,-26.601 66.647,-54.634Z" style="fill:#25dd00;"/><path d="M210.63,381.925c53.922,1.652 100.141,-23.951 138.657,-76.809c13.694,-18.996 20.542,-44.186 20.542,-75.571c0,-20.647 -2.568,-43.773 -7.703,-69.376c-13.695,-68.55 -51.355,-107.367 -112.98,-116.452c-16.262,-2.478 -34.664,-3.717 -55.206,-3.717c-52.21,0 -90.94,12.389 -116.189,37.166c-25.249,24.777 -42.153,62.769 -50.712,113.975c-3.424,19.821 -5.136,36.34 -5.136,49.554c0,33.862 8.987,60.704 26.961,80.526c15.407,16.518 40.656,32.21 75.748,47.076c18.83,8.26 47.503,12.802 86.018,13.628Z" style="fill:#000631;"/><g transform="matrix(0.765415,-0.205092,0.205092,0.765415,-276.432,221.954)"><path d="M515.52,187.853c2.016,-5.568 2.88,-10.752 2.592,-15.552c-0.384,-5.088 -1.776,-10.656 -4.176,-16.704c-2.688,-6.816 -5.712,-11.52 -9.072,-14.112c-6.624,-4.992 -16.8,-7.728 -30.528,-8.208c-4.896,-0.192 -10.464,-0.432 -16.704,-0.72c-7.2,-0.768 -12.288,-2.304 -15.264,-4.608c-4.032,-2.976 -5.76,-7.776 -5.184,-14.4c0.672,-7.392 5.04,-12.048 13.104,-13.968c4.896,-1.152 10.656,-1.728 17.28,-1.728c4.416,0 8.976,0.24 13.68,0.72c2.88,0.288 5.28,0.432 7.2,0.432c8.064,0 12.816,-1.92 14.256,-5.76c0.864,-2.304 1.296,-4.608 1.296,-6.912c0,-7.392 -4.128,-11.52 -12.384,-12.384l-14.688,-1.44c-1.536,-0.096 -3.216,-0.144 -5.04,-0.144c-7.296,0 -16.512,1.008 -27.648,3.024c-7.68,1.44 -13.584,3.6 -17.712,6.48c-4.512,3.072 -8.448,7.848 -11.808,14.328c-3.36,6.48 -5.04,13.416 -5.04,20.808c0,2.112 0.096,4.08 0.288,5.904c1.248,11.328 5.664,19.488 13.248,24.48c6.24,4.128 15.456,6.432 27.648,6.912c10.944,0.384 18.384,1.008 22.32,1.872c9.984,2.112 15.264,6.24 15.84,12.384c0.48,5.664 -2.592,9.456 -9.216,11.376c-3.84,1.152 -9.312,1.68 -16.416,1.584c-2.112,0 -4.416,0.096 -6.912,0.288c-4.32,-0.864 -10.752,-1.824 -19.296,-2.88c-1.536,-0.192 -3.024,-0.288 -4.464,-0.288c-7.872,0 -12.672,3.36 -14.4,10.08c-0.576,2.304 -0.864,4.416 -0.864,6.336c0,4.8 1.68,8.64 5.04,11.52c4.224,3.648 8.784,5.856 13.68,6.624c3.36,0.384 8.352,0.912 14.976,1.584c3.072,0.384 7.776,0.144 14.112,-0.72c14.016,-1.824 24.288,-3.984 30.816,-6.48c2.304,-0.864 4.8,-2.208 7.488,-4.032c1.536,-1.056 3.744,-2.784 6.624,-5.184c1.632,-1.344 3.408,-4.848 5.328,-10.512Z" style="fill:#ff2676;fill-rule:nonzero;"/><path d="M636.912,187.853c2.016,-5.568 2.88,-10.752 2.592,-15.552c-0.384,-5.088 -1.776,-10.656 -4.176,-16.704c-2.688,-6.816 -5.712,-11.52 -9.072,-14.112c-6.624,-4.992 -16.8,-7.728 -30.528,-8.208c-4.896,-0.192 -10.464,-0.432 -16.704,-0.72c-7.2,-0.768 -12.288,-2.304 -15.264,-4.608c-4.032,-2.976 -5.76,-7.776 -5.184,-14.4c0.672,-7.392 5.04,-12.048 13.104,-13.968c4.896,-1.152 10.656,-1.728 17.28,-1.728c4.416,0 8.976,0.24 13.68,0.72c2.88,0.288 5.28,0.432 7.2,0.432c8.064,0 12.816,-1.92 14.256,-5.76c0.864,-2.304 1.296,-4.608 1.296,-6.912c0,-7.392 -4.128,-11.52 -12.384,-12.384l-14.688,-1.44c-1.536,-0.096 -3.216,-0.144 -5.04,-0.144c-7.296,0 -16.512,1.008 -27.648,3.024c-7.68,1.44 -13.584,3.6 -17.712,6.48c-4.512,3.072 -8.448,7.848 -11.808,14.328c-3.36,6.48 -5.04,13.416 -5.04,20.808c0,2.112 0.096,4.08 0.288,5.904c1.248,11.328 5.664,19.488 13.248,24.48c6.24,4.128 15.456,6.432 27.648,6.912c10.944,0.384 18.384,1.008 22.32,1.872c9.984,2.112 15.264,6.24 15.84,12.384c0.48,5.664 -2.592,9.456 -9.216,11.376c-3.84,1.152 -9.312,1.68 -16.416,1.584c-2.112,0 -4.416,0.096 -6.912,0.288c-4.32,-0.864 -10.752,-1.824 -19.296,-2.88c-1.536,-0.192 -3.024,-0.288 -4.464,-0.288c-7.872,0 -12.672,3.36 -14.4,10.08c-0.576,2.304 -0.864,4.416 -0.864,6.336c0,4.8 1.68,8.64 5.04,11.52c4.224,3.648 8.784,5.856 13.68,6.624c3.36,0.384 8.352,0.912 14.976,1.584c3.072,0.384 7.776,0.144 14.112,-0.72c14.016,-1.824 24.288,-3.984 30.816,-6.48c2.304,-0.864 4.8,-2.208 7.488,-4.032c1.536,-1.056 3.744,-2.784 6.624,-5.184c1.632,-1.344 3.408,-4.848 5.328,-10.512Z" style="fill:#ff2676;fill-rule:nonzero;"/><path d="M719.712,113.117c0.096,5.76 -2.784,9.264 -8.64,10.512c-1.344,0.192 -6.672,0.24 -15.984,0.144c-6.432,-0.096 -10.272,-1.728 -11.52,-4.896c-0.48,-1.248 -0.672,-5.76 -0.576,-13.536c0.096,-5.856 -0.528,-11.568 -1.872,-17.136c-2.592,-10.848 -7.056,-16.272 -13.392,-16.272c-1.536,0 -3.36,0.336 -5.472,1.008c-4.704,1.44 -7.584,6.768 -8.64,15.984c-0.288,2.688 -0.384,9.456 -0.288,20.304c0.096,6.912 0.528,17.088 1.296,30.528c0.288,6.24 0.864,17.232 1.728,32.976c0.672,10.944 0.96,17.904 0.864,20.88c0,0.288 0.096,3.456 0.288,9.504c0.096,4.128 1.008,7.128 2.736,9c1.728,1.872 4.656,3.144 8.784,3.816c11.424,1.92 17.232,-2.064 17.424,-11.952c0.096,-4.896 -0.144,-11.736 -0.72,-20.52c-0.576,-8.784 -0.816,-16.968 -0.72,-24.552c0.096,-7.296 2.496,-10.8 7.2,-10.512c3.648,0.288 9.552,0 17.712,-0.864c7.296,-0.768 11.088,3.264 11.376,12.096l1.008,29.088c0.192,6.816 0.672,11.568 1.44,14.256c1.44,5.568 4.32,8.976 8.64,10.224c2.112,0.672 4.08,1.008 5.904,1.008c4.224,0 7.536,-1.632 9.936,-4.896c2.112,-2.88 3.312,-6.576 3.6,-11.088c0.384,-6.624 0,-14.592 -1.152,-23.904c-0.768,-5.28 -1.824,-13.248 -3.168,-23.904c-0.096,-0.96 -0.288,-4.8 -0.576,-11.52l-1.44,-31.536c-0.192,-4.512 -0.144,-10.368 0.144,-17.568c0.192,-4.608 -0.576,-8.544 -2.304,-11.808c-2.112,-4.032 -5.328,-6.048 -9.648,-6.048c-1.728,0 -3.696,0.48 -5.904,1.44c-4.512,1.92 -7.2,7.872 -8.064,17.856c-0.192,2.304 -0.192,9.6 0,21.888Z" style="fill:#a34cff;fill-rule:nonzero;"/></g></svg>