<?xml version="1.0" encoding="UTF-8" standalone="no"?><!DOCTYPE svg PUBLIC "-//W3C//DTD SVG 1.1//EN" "http://www.w3.org/Graphics/SVG/1.1/DTD/svg11.dtd"><svg width="100%" height="100%" viewBox="0 0 1197 669" version="1.1" xmlns="http://www.w3.org/2000/svg" xmlns:xlink="http://www.w3.org/1999/xlink" xml:space="preserve" style="fill-rule:evenodd;clip-rule:evenodd;stroke-linejoin:round;stroke-miterlimit:1.41421;"><path d="M1004.67,18.978c-24.114,-14.211 -55.838,-16.604 -82.395,-16.187c-26.393,0.414 -51.764,10.79 -76.95,18.688c-35.864,11.248 -90.066,40.572 -138.233,48.797c-62.094,10.603 -160.643,12.357 -234.329,14.823c-69.223,2.316 -139.28,-10.235 -207.785,-0.027c-69.678,10.383 -166.307,39.49 -210.283,62.326c-27.191,14.119 -49.481,44.323 -53.574,74.686c-4.345,32.24 27.584,80.089 27.501,118.753c-0.083,38.665 -33.554,76.379 -27.999,113.234c5.555,36.856 22.769,92.914 61.33,107.898c48.253,18.752 155.857,9.419 228.188,4.61c69.347,-4.611 145.171,-28.922 205.797,-33.465c52.547,-3.938 105.785,13.581 157.96,6.206c54.155,-7.655 120.023,-44.681 166.967,-52.134c37.838,-6.006 76.867,13.488 114.695,7.421c46.145,-7.401 129.034,-33.441 162.175,-51.825c20.12,-11.16 35.804,-35.485 36.672,-58.476c1.095,-28.994 -22.099,-76.518 -30.105,-115.485c-9.992,-48.639 -13.241,-134.704 -29.847,-176.344c-12.514,-31.381 -44.422,-58.551 -69.785,-73.499Z" style="fill:#25dd00;"/><path d="M106.829,228.736c18.972,-20.579 48.648,-32.046 74.19,-39.329c25.384,-7.238 52.672,-4.646 79.066,-4.37c37.585,0.392 97.952,12.784 146.439,6.724c62.506,-7.811 157.349,-34.64 228.598,-53.594c66.934,-17.806 130.365,-50.086 198.895,-60.13c69.703,-10.216 170.621,-10.305 219.322,-1.167c30.113,5.65 60.187,28.115 72.888,55.997c13.485,29.604 -3.238,84.643 8.025,121.631c11.264,36.987 54.214,63.407 59.557,100.294c5.343,36.887 5.081,95.527 -27.497,121.026c-40.766,31.907 -146.47,54.1 -217.099,70.419c-67.716,15.646 -147.331,14.308 -206.679,27.496c-51.44,11.431 -97.334,43.6 -149.413,51.633c-54.053,8.338 -127.816,-8.053 -174.908,-1.607c-37.958,5.195 -69.68,35.146 -107.646,40.281c-46.313,6.263 -133.191,5.313 -170.233,-2.698c-22.488,-4.863 -44.538,-23.611 -52.019,-45.368c-9.435,-27.438 -0.979,-79.639 -4.588,-119.257c-4.505,-49.449 -26.29,-132.775 -22.44,-177.439c2.902,-33.658 25.587,-68.897 45.542,-90.542Z" style="fill:#1f5eff;"/><path d="M73.051,236.715c17.135,-22.132 45.716,-36.105 70.538,-45.555c24.669,-9.392 52.079,-9.153 78.399,-11.145c37.479,-2.837 98.688,4.323 146.475,-5.878c61.604,-13.152 153.793,-48.027 223.15,-73.031c65.158,-23.489 126.396,-57.973 192.996,-76.991c68.667,-19.608 169.268,-30.589 218.411,-20c29.951,6.454 62.379,22.842 77.428,49.529c15.978,28.337 4.044,84.609 18.443,120.493c14.399,35.883 59.459,58.517 67.95,94.808c8.492,36.291 13.268,94.738 -17,122.94c-37.874,35.291 -141.282,66.481 -210.249,88.806c-66.122,21.404 -145.557,26.909 -203.553,45.146c-50.268,15.806 -93.23,51.799 -144.426,64.276c-53.137,12.949 -128.035,2.955 -174.4,13.421c-37.371,8.437 -66.403,41.001 -103.788,49.378c-45.604,10.218 -132.242,16.733 -169.836,11.934c-22.822,-2.914 -46.401,-19.699 -55.724,-40.733c-11.756,-26.526 -7.815,-79.261 -14.814,-118.422c-8.735,-48.879 -37.596,-130.026 -37.596,-174.856c0,-33.783 19.574,-70.84 37.596,-94.12Z" style="fill:#000631;"/><g transform="matrix(0.965926,-0.258819,0.258819,0.965926,-40.5397,251.748)"><path d="M224.496,187.853c2.016,-5.568 2.88,-10.752 2.592,-15.552c-0.384,-5.088 -1.776,-10.656 -4.176,-16.704c-2.688,-6.816 -5.712,-11.52 -9.072,-14.112c-6.624,-4.992 -16.8,-7.728 -30.528,-8.208c-4.896,-0.192 -10.464,-0.432 -16.704,-0.72c-7.2,-0.768 -12.288,-2.304 -15.264,-4.608c-4.032,-2.976 -5.76,-7.776 -5.184,-14.4c0.672,-7.392 5.04,-12.048 13.104,-13.968c4.896,-1.152 10.656,-1.728 17.28,-1.728c4.416,0 8.976,0.24 13.68,0.72c2.88,0.288 5.28,0.432 7.2,0.432c8.064,0 12.816,-1.92 14.256,-5.76c0.864,-2.304 1.296,-4.608 1.296,-6.912c0,-7.392 -4.128,-11.52 -12.384,-12.384l-14.688,-1.44c-1.536,-0.096 -3.216,-0.144 -5.04,-0.144c-7.296,0 -16.512,1.008 -27.648,3.024c-7.68,1.44 -13.584,3.6 -17.712,6.48c-4.512,3.072 -8.448,7.848 -11.808,14.328c-3.36,6.48 -5.04,13.416 -5.04,20.808c0,2.112 0.096,4.08 0.288,5.904c1.248,11.328 5.664,19.488 13.248,24.48c6.24,4.128 15.456,6.432 27.648,6.912c10.944,0.384 18.384,1.008 22.32,1.872c9.984,2.112 15.264,6.24 15.84,12.384c0.48,5.664 -2.592,9.456 -9.216,11.376c-3.84,1.152 -9.312,1.68 -16.416,1.584c-2.112,0 -4.416,0.096 -6.912,0.288c-4.32,-0.864 -10.752,-1.824 -19.296,-2.88c-1.536,-0.192 -3.024,-0.288 -4.464,-0.288c-7.872,0 -12.672,3.36 -14.4,10.08c-0.576,2.304 -0.864,4.416 -0.864,6.336c0,4.8 1.68,8.64 5.04,11.52c4.224,3.648 8.784,5.856 13.68,6.624c3.36,0.384 8.352,0.912 14.976,1.584c3.072,0.384 7.776,0.144 14.112,-0.72c14.016,-1.824 24.288,-3.984 30.816,-6.48c2.304,-0.864 4.8,-2.208 7.488,-4.032c1.536,-1.056 3.744,-2.784 6.624,-5.184c1.632,-1.344 3.408,-4.848 5.328,-10.512Z" style="fill:#ff2676;fill-rule:nonzero;"/><path d="M341.712,193.325c0,-2.112 -0.384,-4.08 -1.152,-5.904c-1.824,-4.32 -3.744,-13.92 -5.76,-28.8c-1.056,-7.68 -1.584,-15.12 -1.584,-22.32c0,-2.592 0.24,-6.48 0.72,-11.664c0.48,-5.184 0.72,-9.072 0.72,-11.664c0,-9.504 -4.08,-14.976 -12.24,-16.416c-1.152,-0.192 -2.352,-0.288 -3.6,-0.288c-7.488,0 -11.424,4.752 -11.808,14.256c-0.096,7.776 -0.288,19.44 -0.576,34.992c-0.288,11.808 -1.2,19.968 -2.736,24.48c-2.88,8.64 -8.784,12.96 -17.712,12.96c-9.408,0 -14.544,-3.744 -15.408,-11.232c-0.672,-6.048 -0.816,-17.28 -0.432,-33.696c0.288,-12.864 0.24,-21.072 -0.144,-24.624c-1.344,-11.616 -5.184,-17.664 -11.52,-18.144c-11.232,-0.864 -17.136,4.8 -17.712,16.992c-0.672,13.344 -0.576,23.136 0.288,29.376c0.384,3.072 0.912,10.944 1.584,23.616c0.576,9.696 1.632,17.52 3.168,23.472c2.208,8.16 7.248,14.16 15.12,18c6.624,3.168 14.544,4.512 23.76,4.032c10.464,-0.576 19.008,-2.688 25.632,-6.336c4.416,-2.4 6.528,-5.232 6.336,-8.496c0.96,4.512 4.032,7.632 9.216,9.36c1.92,0.672 3.792,1.008 5.616,1.008c3.264,0 5.856,-1.392 7.776,-4.176c1.632,-2.4 2.448,-5.328 2.448,-8.784Z" style="fill:#ff2676;fill-rule:nonzero;"/><path d="M434.88,89.645c-1.248,-1.248 -3.12,-2.496 -5.616,-3.744c-6.624,-3.36 -13.728,-4.992 -21.312,-4.896c-10.848,0.192 -22.176,3.792 -33.984,10.8c-4.896,2.976 -8.976,8.352 -12.24,16.128c-2.592,6.432 -4.224,13.2 -4.896,20.304c-0.672,7.392 -1.008,13.968 -1.008,19.728l0,18.288c0,6.528 0.576,15.168 1.728,25.92c0.48,4.416 1.152,9.36 2.016,14.832c0.288,1.824 1.392,3.648 3.312,5.472c2.592,2.4 5.52,3.6 8.784,3.6c0.768,0 1.536,-0.096 2.304,-0.288c2.4,-0.576 3.696,-0.96 3.888,-1.152c0.672,-0.672 1.728,-1.728 3.168,-3.168c2.304,-2.208 3.36,-7.344 3.168,-15.408c-0.192,-7.872 -2.112,-21.216 -5.76,-40.032c8.832,1.92 17.232,2.88 25.2,2.88c5.28,0 9.168,-0.192 11.664,-0.576c3.168,-0.576 6.864,-1.872 11.088,-3.888c5.472,-2.592 10.224,-6.384 14.256,-11.376c3.84,-4.704 5.76,-12 5.76,-21.888c0,-13.536 -3.84,-24.048 -11.52,-31.536Zm-19.152,33.552c0,3.456 -1.728,6.384 -5.184,8.784c-3.072,2.208 -6.432,3.312 -10.08,3.312c-2.88,0 -5.28,-1.344 -7.2,-4.032c-1.824,-2.4 -2.736,-5.088 -2.736,-8.064c0,-3.456 1.488,-6.288 4.464,-8.496c2.688,-2.112 5.808,-3.12 9.36,-3.024c7.584,0.288 11.376,4.128 11.376,11.52Z" style="fill:#ff2676;fill-rule:nonzero;"/><path d="M542.016,117.869c-0.192,-16.32 -9.216,-26.496 -27.072,-30.528c-6.048,-1.344 -11.712,-2.016 -16.992,-2.016c-10.08,0 -18.288,2.688 -24.624,8.064c-12.576,8.736 -18.864,23.952 -18.864,45.648c0,5.28 0.288,10.464 0.864,15.552c3.36,30.048 10.8,48.24 22.32,54.576c7.008,3.84 14.064,5.76 21.168,5.76c4.608,0 9.264,-0.768 13.968,-2.304c12.192,-3.936 17.952,-10.128 17.28,-18.576c-0.48,-6.816 -3.12,-10.224 -7.92,-10.224c-1.44,0 -2.784,0.192 -4.032,0.576c-7.104,2.208 -14.208,2.928 -21.312,2.16c-5.952,-0.576 -10.608,-5.04 -13.968,-13.392c-2.112,-5.28 -3.168,-10.08 -3.168,-14.4c0,-1.632 0.144,-3.216 0.432,-4.752c9.408,4.128 17.952,6.192 25.632,6.192c7.392,0 13.92,-2.016 19.584,-6.048c11.328,-8.064 16.896,-20.16 16.704,-36.288Zm-44.352,-5.04c2.016,-0.864 3.744,-1.296 5.184,-1.296c3.936,0 6.912,2.496 8.928,7.488c1.344,3.264 2.016,6.048 2.016,8.352c0,2.4 -0.768,4.272 -2.304,5.616c-2.88,2.592 -6.72,3.744 -11.52,3.456c-3.168,-0.192 -5.928,-1.368 -8.28,-3.528c-2.352,-2.16 -3.576,-4.824 -3.672,-7.992c-0.192,-5.28 3.024,-9.312 9.648,-12.096Z" style="fill:#ff2676;fill-rule:nonzero;"/><path d="M585.072,122.333c1.056,-8.16 0.72,-16.416 -1.008,-24.768c-1.44,-6.72 -6.24,-10.08 -14.4,-10.08c-1.632,0 -3.456,0.144 -5.472,0.432c-2.688,-0.192 -5.76,1.584 -9.216,5.328c-2.304,2.496 -3.456,7.008 -3.456,13.536c0,3.072 0.288,6.768 0.864,11.088c1.056,7.776 2.16,19.392 3.312,34.848c1.152,15.456 2.208,26.904 3.168,34.344c0.96,7.44 1.968,12.36 3.024,14.76c1.824,3.936 5.28,7.152 10.368,9.648c0.96,0.48 2.112,0.72 3.456,0.72c2.4,0 5.088,-1.008 8.064,-3.024c3.648,-2.496 5.472,-8.88 5.472,-19.152c0,-2.592 -0.168,-6.456 -0.504,-11.592c-0.336,-5.136 -0.504,-9 -0.504,-11.592c0,-9.312 1.2,-15.456 3.6,-18.432c6.24,-7.776 16.848,-12.288 31.824,-13.536c6.72,-0.48 9.744,-4.848 9.072,-13.104c-0.576,-8.16 -5.952,-12.624 -16.128,-13.392c-10.176,-0.768 -20.688,3.888 -31.536,13.968Z" style="fill:#ff2676;fill-rule:nonzero;"/><path d="M796.032,187.853c2.016,-5.568 2.88,-10.752 2.592,-15.552c-0.384,-5.088 -1.776,-10.656 -4.176,-16.704c-2.688,-6.816 -5.712,-11.52 -9.072,-14.112c-6.624,-4.992 -16.8,-7.728 -30.528,-8.208c-4.896,-0.192 -10.464,-0.432 -16.704,-0.72c-7.2,-0.768 -12.288,-2.304 -15.264,-4.608c-4.032,-2.976 -5.76,-7.776 -5.184,-14.4c0.672,-7.392 5.04,-12.048 13.104,-13.968c4.896,-1.152 10.656,-1.728 17.28,-1.728c4.416,0 8.976,0.24 13.68,0.72c2.88,0.288 5.28,0.432 7.2,0.432c8.064,0 12.816,-1.92 14.256,-5.76c0.864,-2.304 1.296,-4.608 1.296,-6.912c0,-7.392 -4.128,-11.52 -12.384,-12.384l-14.688,-1.44c-1.536,-0.096 -3.216,-0.144 -5.04,-0.144c-7.296,0 -16.512,1.008 -27.648,3.024c-7.68,1.44 -13.584,3.6 -17.712,6.48c-4.512,3.072 -8.448,7.848 -11.808,14.328c-3.36,6.48 -5.04,13.416 -5.04,20.808c0,2.112 0.096,4.08 0.288,5.904c1.248,11.328 5.664,19.488 13.248,24.48c6.24,4.128 15.456,6.432 27.648,6.912c10.944,0.384 18.384,1.008 22.32,1.872c9.984,2.112 15.264,6.24 15.84,12.384c0.48,5.664 -2.592,9.456 -9.216,11.376c-3.84,1.152 -9.312,1.68 -16.416,1.584c-2.112,0 -4.416,0.096 -6.912,0.288c-4.32,-0.864 -10.752,-1.824 -19.296,-2.88c-1.536,-0.192 -3.024,-0.288 -4.464,-0.288c-7.872,0 -12.672,3.36 -14.4,10.08c-0.576,2.304 -0.864,4.416 -0.864,6.336c0,4.8 1.68,8.64 5.04,11.52c4.224,3.648 8.784,5.856 13.68,6.624c3.36,0.384 8.352,0.912 14.976,1.584c3.072,0.384 7.776,0.144 14.112,-0.72c14.016,-1.824 24.288,-3.984 30.816,-6.48c2.304,-0.864 4.8,-2.208 7.488,-4.032c1.536,-1.056 3.744,-2.784 6.624,-5.184c1.632,-1.344 3.408,-4.848 5.328,-10.512Z" style="fill:#ff2676;fill-rule:nonzero;"/><path d="M832.32,119.597c6.048,0.192 11.232,-2.784 15.552,-8.928c1.536,-2.208 2.304,-5.136 2.304,-8.784c0,-2.4 -0.288,-5.088 -0.864,-8.064c-1.536,-7.968 -5.76,-12.48 -12.672,-13.536c-1.824,-0.288 -3.888,-0.432 -6.192,-0.432c-5.856,0 -10.2,1.44 -13.032,4.32c-2.832,2.88 -4.728,7.296 -5.688,13.248c-0.384,2.304 -0.576,4.224 -0.576,5.76c0,3.936 1.008,7.056 3.024,9.36c1.728,1.92 4.56,3.744 8.496,5.472c2.112,0.96 5.328,1.488 9.648,1.584Zm-0.144,19.584c-5.28,1.152 -8.688,7.296 -10.224,18.432c-0.288,2.016 -0.768,9.984 -1.44,23.904c-0.48,9.12 -0.48,14.976 0,17.568c1.056,6.816 4.32,11.088 9.792,12.816c2.4,0.768 4.752,1.152 7.056,1.152c2.4,0 4.656,-0.48 6.768,-1.44c3.936,-1.728 6,-5.136 6.192,-10.224c0.096,-3.072 -0.24,-7.656 -1.008,-13.752c-0.768,-6.096 -1.104,-10.68 -1.008,-13.752c0.384,-7.488 0.144,-13.92 -0.72,-19.296c-1.44,-9.216 -4.224,-14.256 -8.352,-15.12c-2.4,-0.384 -4.224,-0.576 -5.472,-0.576c-0.864,0 -1.392,0.096 -1.584,0.288Z" style="fill:#ff2676;fill-rule:nonzero;"/><path d="M882,80.717c-1.728,-0.576 -3.264,-0.864 -4.608,-0.864c-4.32,0 -7.68,2.256 -10.08,6.768c-3.072,5.856 -4.464,12.528 -4.176,20.016c0.48,11.616 1.008,21.84 1.584,30.672c0.672,10.272 1.536,20.4 2.592,30.384c0.384,3.744 1.104,10.8 2.16,21.168c0.864,8.16 2.352,13.968 4.464,17.424c2.208,4.608 5.28,6.912 9.216,6.912c2.304,0 4.944,-0.816 7.92,-2.448c1.056,-1.344 1.992,-3.408 2.808,-6.192c0.816,-2.784 1.08,-4.992 0.792,-6.624c0,-7.2 0.144,-14.784 0.432,-22.752c0.48,-12.96 0.336,-26.976 -0.432,-42.048c0,-4.032 -0.096,-10.032 -0.288,-18c-0.48,-20.448 -4.608,-31.92 -12.384,-34.416Z" style="fill:#ff2676;fill-rule:nonzero;"/><path d="M931.968,80.717c-1.728,-0.576 -3.264,-0.864 -4.608,-0.864c-4.32,0 -7.68,2.256 -10.08,6.768c-3.072,5.856 -4.464,12.528 -4.176,20.016c0.48,11.616 1.008,21.84 1.584,30.672c0.672,10.272 1.536,20.4 2.592,30.384c0.384,3.744 1.104,10.8 2.16,21.168c0.864,8.16 2.352,13.968 4.464,17.424c2.208,4.608 5.28,6.912 9.216,6.912c2.304,0 4.944,-0.816 7.92,-2.448c1.056,-1.344 1.992,-3.408 2.808,-6.192c0.816,-2.784 1.08,-4.992 0.792,-6.624c0,-7.2 0.144,-14.784 0.432,-22.752c0.48,-12.96 0.336,-26.976 -0.432,-42.048c0,-4.032 -0.096,-10.032 -0.288,-18c-0.48,-20.448 -4.608,-31.92 -12.384,-34.416Z" style="fill:#ff2676;fill-rule:nonzero;"/><path d="M1019.09,99.725c-0.576,2.208 -0.864,6.768 -0.864,13.68c0.096,7.776 -0.24,13.2 -1.008,16.272c-1.152,3.456 -2.304,5.856 -3.456,7.2c-1.44,1.728 -3.648,2.928 -6.624,3.6c-3.456,0 -5.568,-0.048 -6.336,-0.144c-2.976,-0.384 -5.376,-0.912 -7.2,-1.584c-4.224,-1.632 -6.048,-6.864 -5.472,-15.696c0.288,-4.32 0.432,-8.928 0.432,-13.824c0,-0.288 -0.096,-2.448 -0.288,-6.48c0,-0.48 -0.048,-2.544 -0.144,-6.192c-0.096,-4.032 -2.784,-6.864 -8.064,-8.496c-1.92,-0.576 -3.456,-0.864 -4.608,-0.864c-3.072,0 -5.568,1.2 -7.488,3.6c-3.072,3.744 -4.512,7.632 -4.32,11.664c0.192,2.496 0.48,7.008 0.864,13.536c0.192,2.784 0.48,7.776 0.864,14.976c0.288,5.856 0.624,9.36 1.008,10.512c0.672,5.664 2.064,10.272 4.176,13.824c1.632,2.88 3.216,4.752 4.752,5.616c0.864,0.672 1.872,1.296 3.024,1.872c1.824,0.96 5.088,1.992 9.792,3.096c4.704,1.104 8.208,1.704 10.512,1.8c10.752,0.384 18.144,-1.056 22.176,-4.32c2.976,-2.4 4.608,-3.792 4.896,-4.176c0,0.672 -0.144,1.728 -0.432,3.168c-0.192,4.128 -0.96,8.928 -2.304,14.4c-0.96,3.84 -2.376,6.456 -4.248,7.848c-1.872,1.392 -5.016,2.424 -9.432,3.096c-3.84,0 -6.864,0.048 -9.072,0.144c-1.152,0.096 -4.272,-1.248 -9.36,-4.032c-0.864,-0.672 -2.64,-1.824 -5.328,-3.456c-1.248,-0.768 -2.784,-1.152 -4.608,-1.152c-6.048,0 -9.456,3.072 -10.224,9.216c-0.48,3.552 -0.144,6.912 1.008,10.08c3.072,8.448 11.232,13.872 24.48,16.272c5.28,0.864 10.224,1.248 14.832,1.152c10.176,-0.192 17.616,-2.832 22.32,-7.92c3.744,-4.032 6.576,-10.464 8.496,-19.296c0.864,-4.128 1.872,-11.232 3.024,-21.312c0.288,-2.976 0.768,-6.912 1.44,-11.808c2.688,-21.12 3.84,-34.8 3.456,-41.04c-0.384,-4.128 -0.96,-10.272 -1.728,-18.432c-0.288,-2.88 -1.152,-5.04 -2.592,-6.48c-1.536,-1.056 -4.224,-2.16 -8.064,-3.312c-1.344,-0.384 -2.736,-0.576 -4.176,-0.576c-2.976,0 -6.192,0.816 -9.648,2.448c-1.632,2.208 -3.12,6.048 -4.464,11.52Z" style="fill:#ff2676;fill-rule:nonzero;"/><path d="M169.704,293.117c0.096,5.76 -2.784,9.264 -8.64,10.512c-1.344,0.192 -6.672,0.24 -15.984,0.144c-6.432,-0.096 -10.272,-1.728 -11.52,-4.896c-0.48,-1.248 -0.672,-5.76 -0.576,-13.536c0.096,-5.856 -0.528,-11.568 -1.872,-17.136c-2.592,-10.848 -7.056,-16.272 -13.392,-16.272c-1.536,0 -3.36,0.336 -5.472,1.008c-4.704,1.44 -7.584,6.768 -8.64,15.984c-0.288,2.688 -0.384,9.456 -0.288,20.304c0.096,6.912 0.528,17.088 1.296,30.528c0.288,6.24 0.864,17.232 1.728,32.976c0.672,10.944 0.96,17.904 0.864,20.88c0,0.288 0.096,3.456 0.288,9.504c0.096,4.128 1.008,7.128 2.736,9c1.728,1.872 4.656,3.144 8.784,3.816c11.424,1.92 17.232,-2.064 17.424,-11.952c0.096,-4.896 -0.144,-11.736 -0.72,-20.52c-0.576,-8.784 -0.816,-16.968 -0.72,-24.552c0.096,-7.296 2.496,-10.8 7.2,-10.512c3.648,0.288 9.552,0 17.712,-0.864c7.296,-0.768 11.088,3.264 11.376,12.096l1.008,29.088c0.192,6.816 0.672,11.568 1.44,14.256c1.44,5.568 4.32,8.976 8.64,10.224c2.112,0.672 4.08,1.008 5.904,1.008c4.224,0 7.536,-1.632 9.936,-4.896c2.112,-2.88 3.312,-6.576 3.6,-11.088c0.384,-6.624 0,-14.592 -1.152,-23.904c-0.768,-5.28 -1.824,-13.248 -3.168,-23.904c-0.096,-0.96 -0.288,-4.8 -0.576,-11.52l-1.44,-31.536c-0.192,-4.512 -0.144,-10.368 0.144,-17.568c0.192,-4.608 -0.576,-8.544 -2.304,-11.808c-2.112,-4.032 -5.328,-6.048 -9.648,-6.048c-1.728,0 -3.696,0.48 -5.904,1.44c-4.512,1.92 -7.2,7.872 -8.064,17.856c-0.192,2.304 -0.192,9.6 0,21.888Z" style="fill:#a34cff;fill-rule:nonzero;"/><path d="M252.504,269.645c-1.056,0.384 -2.736,1.104 -5.04,2.16c-0.48,0.288 -1.152,0.576 -2.016,0.864c-3.36,1.344 -5.904,4.8 -7.632,10.368c-0.48,1.632 -0.72,3.024 -0.72,4.176c0,3.936 1.728,7.392 5.184,10.368c3.456,2.976 7.152,4.464 11.088,4.464c1.248,0 2.304,-0.096 3.168,-0.288c5.376,-1.152 9.696,-1.392 12.96,-0.72c3.36,0.672 6.24,3.264 8.64,7.776c1.44,2.688 2.16,6.096 2.16,10.224c0,2.592 -0.288,5.616 -0.864,9.072c0,0.192 -0.144,1.248 -0.432,3.168c-1.056,-0.768 -2.4,-1.776 -4.032,-3.024c-5.952,-3.552 -13.392,-5.328 -22.32,-5.328c-2.112,0 -3.84,0.048 -5.184,0.144c-9.024,0.672 -16.656,4.032 -22.896,10.08c-6.24,6.048 -9.36,13.536 -9.36,22.464c0,13.344 5.616,23.904 16.848,31.68c3.84,2.688 8.784,4.176 14.832,4.464c6.624,0.384 13.248,-0.576 19.872,-2.88c7.584,-2.592 13.056,-6.24 16.416,-10.944l1.44,-2.88c2.976,6.912 6.48,10.704 10.512,11.376c1.152,0.192 2.256,0.288 3.312,0.288c4.416,0 7.776,-1.872 10.08,-5.616c0.48,-0.768 0.72,-1.872 0.72,-3.312c0,-3.168 -1.392,-6.96 -4.176,-11.376c-2.4,-3.84 -3.6,-10.656 -3.6,-20.448c0,-4.704 0.288,-9.984 0.864,-15.84c1.824,-18.816 2.352,-30.624 1.584,-35.424c-0.672,-4.224 -2.448,-8.64 -5.328,-13.248c-2.016,-3.36 -5.736,-6.456 -11.16,-9.288c-5.424,-2.832 -10.104,-4.248 -14.04,-4.248l-9.792,0c-4.608,-0.096 -8.304,0.48 -11.088,1.728Zm-4.176,99.648c-1.92,0 -3.696,-0.48 -5.328,-1.44c-3.36,-1.92 -4.752,-5.568 -4.176,-10.944c0.576,-6.144 4.8,-9.216 12.672,-9.216c4.608,0 7.776,2.448 9.504,7.344c0.576,1.632 0.864,3.024 0.864,4.176c0,3.072 -1.536,5.568 -4.608,7.488c-2.688,1.728 -5.664,2.592 -8.928,2.592Z" style="fill:#a34cff;fill-rule:nonzero;"/><path d="M409.032,291.821c-1.92,-15.744 -15.36,-23.904 -40.32,-24.48c-19.008,-0.48 -31.344,4.08 -37.008,13.68c-3.264,5.568 -5.616,15.36 -7.056,29.376c-1.056,11.04 -1.344,21.312 -0.864,30.816c1.248,24.576 9.168,39.888 23.76,45.936c10.272,4.224 19.728,6.192 28.368,5.904c3.84,-0.096 10.272,-1.296 19.296,-3.6c8.16,-3.744 12.24,-8.64 12.24,-14.688c0,-2.304 -0.432,-4.56 -1.296,-6.768c-2.592,-6.624 -7.92,-9.936 -15.984,-9.936c-2.592,0 -6.36,0.6 -11.304,1.8c-4.944,1.2 -8.712,1.8 -11.304,1.8c-8.928,0 -14.784,-4.512 -17.568,-13.536c-2.208,-7.104 -3.312,-13.44 -3.312,-19.008c0,-4.128 0.624,-7.968 1.872,-11.52c4.416,-12.768 12.816,-19.152 25.2,-19.152c5.376,0 11.568,1.152 18.576,3.456c3.552,1.152 6.432,1.728 8.64,1.728c5.472,0 8.208,-2.976 8.208,-8.928c0,-1.152 -0.048,-2.112 -0.144,-2.88Z" style="fill:#a34cff;fill-rule:nonzero;"/><path d="M509.112,298.445l-21.312,27.936c-5.664,7.488 -11.136,14.304 -16.416,20.448c7.104,2.976 14.208,5.904 21.312,8.784c8.256,4.416 12.096,10.032 11.52,16.848c-0.48,5.856 -2.976,9.84 -7.488,11.952c-1.248,0.576 -2.592,0.864 -4.032,0.864c-4.32,0 -10.272,-2.304 -17.856,-6.912l-20.736,-12.528c-0.384,8.448 -0.576,13.872 -0.576,16.272c0.096,5.28 -2.736,9.024 -8.496,11.232c-2.976,1.152 -5.568,1.728 -7.776,1.728c-2.4,0 -4.416,-0.624 -6.048,-1.872c-3.84,-3.072 -5.904,-7.68 -6.192,-13.824c0,-3.648 0,-9.072 0,-16.272c-0.288,-13.536 -1.008,-28.368 -2.16,-44.496c-1.152,-16.608 -1.536,-29.28 -1.152,-38.016c0.384,-8.544 1.584,-14.208 3.6,-16.992c2.688,-3.744 7.968,-5.376 15.84,-4.896c7.008,0.384 10.848,7.392 11.52,21.024c0.576,11.808 0.864,22.224 0.864,31.248l0,19.008c0.48,-0.96 1.44,-2.592 2.88,-4.896l5.328,-7.92c3.84,-6.432 9.744,-16.08 17.712,-28.944c8.832,-13.632 16.272,-20.304 22.32,-20.016c6.432,0.288 11.136,2.832 14.112,7.632c0.96,1.536 1.44,3.216 1.44,5.04c0,4.512 -2.736,10.368 -8.208,17.568Z" style="fill:#a34cff;fill-rule:nonzero;"/><path d="M561.24,269.645c-1.056,0.384 -2.736,1.104 -5.04,2.16c-0.48,0.288 -1.152,0.576 -2.016,0.864c-3.36,1.344 -5.904,4.8 -7.632,10.368c-0.48,1.632 -0.72,3.024 -0.72,4.176c0,3.936 1.728,7.392 5.184,10.368c3.456,2.976 7.152,4.464 11.088,4.464c1.248,0 2.304,-0.096 3.168,-0.288c5.376,-1.152 9.696,-1.392 12.96,-0.72c3.36,0.672 6.24,3.264 8.64,7.776c1.44,2.688 2.16,6.096 2.16,10.224c0,2.592 -0.288,5.616 -0.864,9.072c0,0.192 -0.144,1.248 -0.432,3.168c-1.056,-0.768 -2.4,-1.776 -4.032,-3.024c-5.952,-3.552 -13.392,-5.328 -22.32,-5.328c-2.112,0 -3.84,0.048 -5.184,0.144c-9.024,0.672 -16.656,4.032 -22.896,10.08c-6.24,6.048 -9.36,13.536 -9.36,22.464c0,13.344 5.616,23.904 16.848,31.68c3.84,2.688 8.784,4.176 14.832,4.464c6.624,0.384 13.248,-0.576 19.872,-2.88c7.584,-2.592 13.056,-6.24 16.416,-10.944l1.44,-2.88c2.976,6.912 6.48,10.704 10.512,11.376c1.152,0.192 2.256,0.288 3.312,0.288c4.416,0 7.776,-1.872 10.08,-5.616c0.48,-0.768 0.72,-1.872 0.72,-3.312c0,-3.168 -1.392,-6.96 -4.176,-11.376c-2.4,-3.84 -3.6,-10.656 -3.6,-20.448c0,-4.704 0.288,-9.984 0.864,-15.84c1.824,-18.816 2.352,-30.624 1.584,-35.424c-0.672,-4.224 -2.448,-8.64 -5.328,-13.248c-2.016,-3.36 -5.736,-6.456 -11.16,-9.288c-5.424,-2.832 -10.104,-4.248 -14.04,-4.248l-9.792,0c-4.608,-0.096 -8.304,0.48 -11.088,1.728Zm-4.176,99.648c-1.92,0 -3.696,-0.48 -5.328,-1.44c-3.36,-1.92 -4.752,-5.568 -4.176,-10.944c0.576,-6.144 4.8,-9.216 12.672,-9.216c4.608,0 7.776,2.448 9.504,7.344c0.576,1.632 0.864,3.024 0.864,4.176c0,3.072 -1.536,5.568 -4.608,7.488c-2.688,1.728 -5.664,2.592 -8.928,2.592Z" style="fill:#a34cff;fill-rule:nonzero;"/><path d="M720.504,314.861c-1.44,-0.192 -4.032,-0.48 -7.776,-0.864c-2.784,-0.288 -5.328,-0.288 -7.632,0c-0.576,0.096 -1.248,0.144 -2.016,0.144c-1.44,0 -3.312,-0.192 -5.616,-0.576l1.008,-20.736c0.192,-3.648 0.48,-8.64 0.864,-14.976c0.864,-13.632 -3.6,-20.928 -13.392,-21.888c-7.008,-0.672 -11.664,1.536 -13.968,6.624c-1.44,3.168 -2.112,8.784 -2.016,16.848c0.096,6.144 0.24,17.664 0.432,34.56c-7.488,0.672 -13.44,0.816 -17.856,0.432c-5.184,-0.48 -10.128,0.96 -14.832,4.32c-3.072,2.208 -4.608,5.184 -4.608,8.928c0,2.016 0.336,4.08 1.008,6.192c2.784,8.448 9.312,12.672 19.584,12.672c5.088,0 11.184,-0.864 18.288,-2.592c0.192,18.336 0.432,30.384 0.72,36.144c0.288,5.184 0.672,8.448 1.152,9.792c1.152,2.976 3.552,4.944 7.2,5.904c1.056,0.288 2.352,0.432 3.888,0.432c3.84,0 6.912,-1.488 9.216,-4.464c2.112,-2.688 3.168,-6 3.168,-9.936c0,-3.936 0.192,-10.704 0.576,-20.304c0.288,-8.16 0.432,-14.976 0.432,-20.448c6.432,0.384 11.808,0.576 16.128,0.576c6.72,0 10.8,-0.432 12.24,-1.296c3.264,-1.824 5.424,-3.36 6.48,-4.608c1.536,-1.824 2.352,-4.368 2.448,-7.632c0.096,-3.936 -0.864,-6.624 -2.88,-8.064c-5.088,-3.456 -9.168,-5.184 -12.24,-5.184Z" style="fill:#a34cff;fill-rule:nonzero;"/><path d="M817.848,321.485c-2.208,-1.344 -6.144,-2.448 -11.808,-3.312c-1.824,-0.288 -3.6,-0.432 -5.328,-0.432c-11.616,0 -23.04,6.96 -34.272,20.88c0.864,-21.408 1.392,-36.576 1.584,-45.504c0.096,-4.032 0.096,-7.824 0,-11.376l-0.144,-8.784c0,-4.8 -2.736,-8.304 -8.208,-10.512c-2.208,-0.864 -4.224,-1.296 -6.048,-1.296c-3.264,0 -6.432,1.056 -9.504,3.168c-4.992,3.456 -7.44,10.08 -7.344,19.872c0.096,7.488 0.624,17.088 1.584,28.8l2.304,28.656c0.768,8.928 1.248,14.208 1.44,15.84c0,2.208 0.144,5.136 0.432,8.784c0.384,4.32 0.384,9.936 0,16.848c-0.192,4.224 1.68,7.44 5.616,9.648c3.168,1.728 7.056,2.592 11.664,2.592c8.16,0 13.392,-5.184 15.696,-15.552c1.632,-7.392 3.072,-13.008 4.32,-16.848c2.496,-7.584 5.328,-12.528 8.496,-14.832c2.016,-1.536 5.04,-2.544 9.072,-3.024c3.744,-0.48 6.96,3.648 9.648,12.384c0.768,2.4 3.12,12 7.056,28.8c1.824,5.184 5.28,7.776 10.368,7.776c9.984,0 14.976,-6.096 14.976,-18.288c0,-2.688 -0.192,-5.808 -0.576,-9.36c-0.864,-8.256 -2.928,-16.512 -6.192,-24.768c-4.224,-10.752 -9.168,-17.472 -14.832,-20.16Z" style="fill:#a34cff;fill-rule:nonzero;"/><path d="M901.224,272.093c-17.856,-0.864 -30.432,2.64 -37.728,10.512c-4.128,4.416 -7.152,9.84 -9.072,16.272c-1.056,3.36 -2.256,9.552 -3.6,18.576c-0.288,1.92 -0.432,4.32 -0.432,7.2c0,6.24 0.768,14.352 2.304,24.336c1.632,10.848 3.504,18.672 5.616,23.472c2.784,6.336 7.44,11.52 13.968,15.552c5.76,3.456 13.728,5.472 23.904,6.048c9.408,0.48 17.952,-1.248 25.632,-5.184c8.16,-4.128 14.184,-10.2 18.072,-18.216c3.888,-8.016 5.832,-16.488 5.832,-25.416c0,-2.4 -0.096,-4.56 -0.288,-6.48c-1.536,-14.976 -2.64,-24.288 -3.312,-27.936c-3.744,-20.352 -11.568,-32.496 -23.472,-36.432c-3.456,-1.152 -9.264,-1.92 -17.424,-2.304Zm15.696,71.28c0.192,2.592 0.288,4.416 0.288,5.472c0,7.872 -2.496,13.44 -7.488,16.704c-3.936,2.592 -7.92,3.888 -11.952,3.888c-2.304,0 -4.56,-0.432 -6.768,-1.296c-6.24,-2.4 -9.696,-8.832 -10.368,-19.296c-0.48,-7.296 -0.816,-16.32 -1.008,-27.072c-0.096,-8.352 1.056,-14.304 3.456,-17.856c2.88,-4.224 8.304,-6.288 16.272,-6.192c5.952,0.096 10.272,3.504 12.96,10.224c1.536,4.032 2.64,9.936 3.312,17.712c0,0 0.432,5.904 1.296,17.712Z" style="fill:#a34cff;fill-rule:nonzero;"/><path d="M1012.68,310.973c6.912,0.672 11.544,2.328 13.896,4.968c2.352,2.64 3.624,7.464 3.816,14.472c0.192,5.952 -0.048,14.976 -0.72,27.072c-0.48,9.504 -0.192,16.56 0.864,21.168c1.92,8.064 6.48,12.48 13.68,13.248c9.024,0.96 14.16,-4.896 15.408,-17.568c0.096,-1.344 0.24,-6.576 0.432,-15.696c0.192,-9.12 -0.24,-21.648 -1.296,-37.584c-1.152,-18.048 -6,-30.048 -14.544,-36c-6.144,-4.32 -13.296,-6.48 -21.456,-6.48c-2.784,0 -6.192,0.384 -10.224,1.152c-12.672,2.4 -20.976,5.424 -24.912,9.072c0.288,-1.824 0.432,-3.648 0.432,-5.472c0,-2.496 -0.24,-5.088 -0.72,-7.776c-1.056,-4.512 -4.128,-7.056 -9.216,-7.632c-9.888,-1.056 -15.936,2.64 -18.144,11.088c-1.056,3.936 -0.912,13.248 0.432,27.936c1.536,17.28 2.208,27.984 2.016,32.112l-1.152,20.448c-0.288,5.088 -0.432,9.744 -0.432,13.968c0,11.808 5.376,17.52 16.128,17.136c9.504,-0.384 13.872,-8.64 13.104,-24.768c-0.288,-3.456 -0.624,-8.688 -1.008,-15.696c-0.48,-11.424 0.48,-20.304 2.88,-26.64c3.264,-8.448 9.168,-12.672 17.712,-12.672c0.96,0 1.968,0.048 3.024,0.144Z" style="fill:#a34cff;fill-rule:nonzero;"/></g></svg>