<?xml version="1.0" encoding="UTF-8" standalone="no"?><!DOCTYPE svg PUBLIC "-//W3C//DTD SVG 1.1//EN" "http://www.w3.org/Graphics/SVG/1.1/DTD/svg11.dtd"><svg width="100%" height="100%" viewBox="0 0 299 325" version="1.1" xmlns="http://www.w3.org/2000/svg" xmlns:xlink="http://www.w3.org/1999/xlink" xml:space="preserve" style="fill-rule:evenodd;clip-rule:evenodd;stroke-linejoin:round;stroke-miterlimit:1.41421;"><path d="M159.917,280.658c34.057,1.043 63.248,-15.127 87.575,-48.512c8.649,-11.998 12.974,-27.908 12.974,-47.73c0,-13.041 -1.622,-27.647 -4.865,-43.818c-8.65,-43.296 -32.436,-67.813 -71.358,-73.551c-10.271,-1.565 -21.894,-2.348 -34.868,-2.348c-32.976,0 -57.437,7.825 -73.385,23.474c-15.947,15.649 -26.623,39.645 -32.029,71.986c-2.163,12.52 -3.244,22.952 -3.244,31.299c0,21.387 5.676,38.34 17.029,50.86c9.73,10.432 25.678,20.344 47.842,29.733c11.893,5.216 30.002,8.085 54.329,8.607Z" style="fill:#000631;"/><path d="M198.847,74.655c7.884,-4.326 34.275,-16.468 46.815,-19.27c9.283,-2.074 27.102,-6.958 28.428,2.46c1.578,11.205 -12.226,54.448 -18.962,64.767c-3.943,6.041 -15.618,1.391 -21.453,-2.85c-9.463,-6.879 -29.516,-30.901 -35.321,-38.418c-1.366,-1.77 -1.467,-5.613 0.493,-6.689Z" style="fill:#000631;"/><path d="M209.534,84.352c5.328,-2.924 23.162,-11.129 31.637,-13.022c6.273,-1.402 18.315,-4.702 19.211,1.662c1.066,7.572 -8.262,36.794 -12.814,43.768c-2.665,4.082 -10.555,0.94 -14.498,-1.926c-6.394,-4.648 -19.946,-20.882 -23.869,-25.962c-0.923,-1.196 -0.991,-3.793 0.333,-4.52Z" style="fill:#000e66;"/><path d="M60.862,123.888c-4.053,-8.028 -15.282,-34.82 -17.652,-47.45c-1.754,-9.348 -6.024,-27.324 3.435,-28.326c11.252,-1.192 53.995,14.087 64.077,21.174c5.902,4.148 0.855,15.656 -3.585,21.343c-7.199,9.22 -31.895,28.438 -39.607,33.981c-1.815,1.304 -5.66,1.274 -6.668,-0.722Z" style="fill:#000631;"/><path d="M61.341,113.182c-2.929,-5.801 -11.042,-25.16 -12.754,-34.285c-1.268,-6.754 -4.353,-19.743 2.481,-20.467c8.13,-0.861 39.015,10.179 46.299,15.299c4.265,2.997 0.618,11.313 -2.59,15.421c-5.202,6.663 -23.046,20.548 -28.618,24.553c-1.312,0.943 -4.09,0.921 -4.818,-0.521Z" style="fill:#000e66;"/><path d="M179.716,164.956c2.174,2.296 5.193,3.099 9.056,2.408c1.383,-0.254 2.745,-1.058 4.087,-2.412c0.883,-0.891 1.765,-1.994 2.647,-3.311c2.361,-3.522 2.453,-6.751 0.277,-9.686c-0.571,-0.778 -1.284,-1.591 -2.14,-2.438c-2.173,-2.155 -4.315,-3.219 -6.426,-3.192c-2.11,0.027 -4.439,0.969 -6.985,2.824c-0.99,0.714 -1.768,1.356 -2.333,1.926c-1.448,1.461 -2.222,2.99 -2.321,4.587c-0.065,1.348 0.315,3.067 1.14,5.156c0.43,1.134 1.43,2.513 2.998,4.138Z" style="fill:#25dd00;"/><path d="M115.979,162.919c2.163,-2.306 2.784,-5.368 1.864,-9.184c-0.336,-1.364 -1.22,-2.676 -2.651,-3.935c-0.942,-0.829 -2.096,-1.644 -3.463,-2.445c-3.657,-2.147 -6.885,-2.047 -9.685,0.301c-0.743,0.616 -1.511,1.377 -2.307,2.281c-2.021,2.298 -2.955,4.499 -2.802,6.604c0.152,2.106 1.231,4.374 3.235,6.805c0.772,0.946 1.459,1.684 2.061,2.214c1.545,1.358 3.117,2.04 4.717,2.044c1.35,-0.015 3.043,-0.497 5.08,-1.445c1.105,-0.498 2.422,-1.577 3.951,-3.24Z" style="fill:#25dd00;"/><path d="M129.608,179.063c2.576,0.164 10.84,1.28 14.311,2.53c2.569,0.925 7.639,2.482 6.512,4.969c-1.341,2.958 -11.338,11.316 -14.558,12.781c-1.884,0.858 -3.999,-2.065 -4.761,-3.99c-1.236,-3.123 -2.401,-12.029 -2.652,-14.744c-0.059,-0.639 0.507,-1.586 1.148,-1.546Z" style="fill:#ff2478;"/><path d="M211.105,192.289l0.499,0.056l0.495,0.087l0.572,0.119l0.578,0.123l0.577,0.123l0.573,0.125l0.571,0.126l0.568,0.127l0.568,0.128l0.564,0.129l0.562,0.131l0.56,0.132l0.558,0.133l0.556,0.134l0.554,0.136l0.551,0.136l0.55,0.138l0.548,0.14l0.546,0.141l0.544,0.141l0.541,0.144l0.541,0.144l0.54,0.147l0.536,0.147l0.535,0.149l0.534,0.15l0.532,0.152l0.53,0.153l0.529,0.154l0.528,0.156l0.525,0.157l0.524,0.159l0.524,0.16l0.521,0.162l0.52,0.163l0.52,0.165l0.516,0.166l0.516,0.168l0.516,0.169l0.514,0.171l0.512,0.172l0.513,0.174l0.511,0.176l0.509,0.177l0.508,0.178l0.508,0.181l0.506,0.181l0.507,0.184l0.504,0.185l0.505,0.187l0.503,0.188l0.502,0.19l0.502,0.192l0.501,0.193l0.5,0.195l0.5,0.197l0.499,0.199l0.499,0.2l0.498,0.201l0.497,0.204l0.497,0.205l0.497,0.207l0.497,0.209l0.496,0.211l0.494,0.212l0.496,0.214l0.495,0.216l0.495,0.217l0.495,0.22l0.494,0.221l0.494,0.223l0.494,0.224l0.495,0.227l0.494,0.228l0.495,0.231l0.494,0.232l0.494,0.234l0.495,0.236l0.495,0.237l0.494,0.239l0.497,0.243l0.495,0.243l0.496,0.245l0.496,0.247l0.497,0.249l0.497,0.251l0.497,0.253l0.499,0.255l0.498,0.256l0.501,0.26l0.499,0.26l0.5,0.263l0.502,0.265l0.502,0.266l0.503,0.269l0.504,0.271l0.505,0.273l0.506,0.274l0.506,0.277l0.508,0.279l0.508,0.281l0.51,0.283l0.511,0.285l0.513,0.287l0.513,0.289l0.515,0.292l0.516,0.294l0.516,0.295l0.519,0.297l0.521,0.301l0.522,0.302l0.521,0.304l0.525,0.306l0.526,0.309l0.529,0.311l0.529,0.313l0.531,0.315l0.533,0.318l0.535,0.32l0.536,0.321l0.539,0.325l0.541,0.326l0.542,0.33l0.545,0.331l0.546,0.333l0.547,0.335l0.552,0.339l0.555,0.341l0.554,0.343l0.565,0.35l0.301,0.187l0.307,0.195l0.304,0.196l0.303,0.197l0.301,0.198l0.298,0.199l0.295,0.2l0.292,0.2l0.293,0.203l0.29,0.203l0.288,0.204l0.284,0.203l0.283,0.204l0.282,0.206l0.279,0.205l0.278,0.206l0.277,0.208l0.274,0.208l0.273,0.207l0.269,0.207l0.268,0.207l0.269,0.208l0.266,0.21l0.264,0.207l0.263,0.209l0.26,0.208l0.26,0.208l0.262,0.211l0.509,0.412l0.507,0.415l0.502,0.413l0.498,0.412l0.492,0.409l0.488,0.407l0.965,0.805l0.477,0.398l0.474,0.395l0.47,0.39l0.467,0.385l0.465,0.383l0.462,0.376l0.463,0.375l0.226,0.181l0.226,0.181l0.228,0.181l0.228,0.18l0.227,0.178l0.237,0.185l0.387,0.321l0.365,0.345l0.343,0.368l0.319,0.388l0.295,0.407l0.268,0.425l0.241,0.441l0.212,0.456l0.184,0.468l0.154,0.478l0.124,0.487l0.093,0.494l0.061,0.499l0.03,0.501l-0.001,0.503l-0.033,0.501l-0.064,0.499l-0.096,0.493l-0.126,0.487l-0.157,0.477l-0.186,0.467l-0.215,0.454l-0.243,0.44l-0.271,0.424l-0.296,0.405l-0.322,0.387l-0.345,0.365l-0.367,0.343l-0.388,0.319l-0.408,0.295l-0.425,0.268l-0.441,0.241l-0.455,0.213l-0.468,0.183l-0.478,0.154l-0.487,0.124l-0.494,0.093l-0.499,0.061l-0.502,0.03l-0.502,-0.001l-0.502,-0.033l-0.498,-0.064l-0.494,-0.096l-0.486,-0.126l-0.478,-0.157l-0.467,-0.186l-0.454,-0.215l-0.439,-0.243l-0.424,-0.271l-0.406,-0.296l-0.255,-0.2l-0.265,-0.208l-0.264,-0.208l-0.262,-0.208l-0.262,-0.209l-0.263,-0.211l-0.51,-0.413l-0.509,-0.415l-0.502,-0.413l-0.5,-0.412l-0.494,-0.41l-0.49,-0.408l-0.486,-0.405l-0.959,-0.802l-0.475,-0.395l-0.472,-0.392l-0.467,-0.387l-0.466,-0.383l-0.463,-0.379l-0.464,-0.376l-0.225,-0.181l-0.229,-0.183l-0.228,-0.183l-0.227,-0.18l-0.228,-0.179l-0.226,-0.177l-0.225,-0.175l-0.227,-0.175l-0.226,-0.174l-0.225,-0.171l-0.224,-0.17l-0.223,-0.167l-0.224,-0.166l-0.224,-0.165l-0.222,-0.162l-0.224,-0.161l-0.223,-0.161l-0.222,-0.157l-0.222,-0.154l-0.221,-0.153l-0.223,-0.153l-0.221,-0.15l-0.221,-0.148l-0.222,-0.146l-0.22,-0.143l-0.222,-0.143l-0.22,-0.139l-0.23,-0.144l-0.533,-0.33l-0.538,-0.333l-0.534,-0.328l-0.532,-0.327l-0.531,-0.325l-0.528,-0.322l-0.524,-0.319l-0.523,-0.317l-0.519,-0.314l-0.518,-0.311l-0.515,-0.31l-0.513,-0.306l-0.51,-0.304l-0.509,-0.302l-0.506,-0.3l-0.504,-0.296l-0.501,-0.294l-0.5,-0.292l-0.498,-0.29l-0.496,-0.287l-0.492,-0.284l-0.492,-0.282l-0.491,-0.281l-0.488,-0.277l-0.485,-0.275l-0.485,-0.274l-0.482,-0.27l-0.481,-0.268l-0.479,-0.266l-0.478,-0.264l-0.476,-0.261l-0.475,-0.26l-0.473,-0.257l-0.471,-0.255l-0.47,-0.252l-0.469,-0.251l-0.468,-0.248l-0.465,-0.246l-0.466,-0.244l-0.464,-0.242l-0.462,-0.239l-0.462,-0.238l-0.46,-0.236l-0.46,-0.233l-0.458,-0.232l-0.458,-0.229l-0.456,-0.228l-0.457,-0.225l-0.455,-0.224l-0.453,-0.221l-0.454,-0.219l-0.453,-0.218l-0.452,-0.215l-0.452,-0.214l-0.451,-0.212l-0.45,-0.21l-0.45,-0.208l-0.45,-0.206l-0.449,-0.204l-0.45,-0.203l-0.449,-0.201l-0.448,-0.198l-0.449,-0.198l-0.447,-0.195l-0.448,-0.193l-0.449,-0.193l-0.448,-0.19l-0.448,-0.188l-0.448,-0.187l-0.449,-0.185l-0.448,-0.184l-0.449,-0.182l-0.449,-0.18l-0.45,-0.179l-0.449,-0.177l-0.451,-0.175l-0.451,-0.174l-0.45,-0.173l-0.453,-0.171l-0.452,-0.169l-0.453,-0.168l-0.455,-0.166l-0.454,-0.165l-0.456,-0.164l-0.456,-0.162l-0.458,-0.161l-0.458,-0.159l-0.459,-0.158l-0.46,-0.156l-0.462,-0.155l-0.462,-0.154l-0.463,-0.152l-0.466,-0.151l-0.467,-0.15l-0.467,-0.149l-0.47,-0.147l-0.47,-0.146l-0.471,-0.144l-0.474,-0.144l-0.476,-0.142l-0.476,-0.141l-0.479,-0.14l-0.48,-0.138l-0.482,-0.137l-0.484,-0.137l-0.486,-0.135l-0.488,-0.134l-0.489,-0.132l-0.491,-0.132l-0.495,-0.131l-0.496,-0.129l-0.498,-0.129l-0.5,-0.127l-0.502,-0.126l-0.505,-0.125l-0.507,-0.124l-0.509,-0.123l-0.512,-0.122l-0.515,-0.121l-0.516,-0.12l-0.52,-0.12l-0.521,-0.117l-0.525,-0.118l-0.529,-0.116l-0.53,-0.115l-0.532,-0.114l-0.535,-0.114l-0.549,-0.114l-0.488,-0.118l-0.48,-0.149l-0.47,-0.178l-0.458,-0.207l-0.444,-0.236l-0.428,-0.263l-0.411,-0.29l-0.392,-0.315l-0.371,-0.338l-0.349,-0.362l-0.326,-0.383l-0.301,-0.402l-0.275,-0.42l-0.249,-0.437l-0.22,-0.452l-0.192,-0.464l-0.162,-0.476l-0.132,-0.485l-0.101,-0.492l-0.07,-0.498l-0.039,-0.501l-0.007,-0.503l0.024,-0.502l0.056,-0.499l0.087,-0.495l0.118,-0.489l0.149,-0.48l0.178,-0.47l0.208,-0.457l0.235,-0.444l0.264,-0.428l0.289,-0.411l0.315,-0.392l0.339,-0.371l0.361,-0.349l0.383,-0.326l0.402,-0.301l0.421,-0.276l0.437,-0.248l0.451,-0.22l0.465,-0.192l0.475,-0.162l0.485,-0.132l0.493,-0.101l0.497,-0.07l0.501,-0.039l0.503,-0.007l0.502,0.024Z" style="fill:#1f5eff;"/><path d="M198.666,218.82l0.411,0.026l0.409,0.048l0.406,0.068l0.402,0.09l0.397,0.11l0.391,0.13l0.384,0.15l0.375,0.17l0.366,0.189l0.427,0.234l0.433,0.239l0.432,0.239l0.432,0.24l0.43,0.241l0.431,0.242l0.43,0.243l0.428,0.243l0.429,0.245l0.428,0.245l0.427,0.246l0.426,0.247l0.425,0.248l0.425,0.248l0.424,0.249l0.424,0.25l0.422,0.251l0.421,0.251l0.421,0.253l0.421,0.254l0.419,0.254l0.419,0.255l0.417,0.255l0.417,0.257l0.416,0.257l0.414,0.258l0.414,0.259l0.414,0.26l0.412,0.261l0.411,0.261l0.409,0.261l0.411,0.264l0.408,0.264l0.407,0.264l0.406,0.266l0.405,0.266l0.404,0.267l0.403,0.268l0.402,0.268l0.402,0.27l0.399,0.27l0.399,0.271l0.398,0.272l0.396,0.273l0.396,0.274l0.394,0.274l0.392,0.274l0.393,0.277l0.391,0.277l0.388,0.277l0.388,0.278l0.387,0.28l0.386,0.28l0.384,0.281l0.383,0.281l0.382,0.283l0.381,0.284l0.378,0.283l0.378,0.285l0.377,0.286l0.375,0.287l0.373,0.286l0.372,0.288l0.371,0.29l0.37,0.29l0.368,0.291l0.367,0.292l0.365,0.292l0.363,0.293l0.362,0.294l0.361,0.295l0.359,0.296l0.357,0.296l0.357,0.298l0.354,0.298l0.353,0.3l0.351,0.299l0.349,0.301l0.349,0.302l0.346,0.303l0.345,0.303l0.343,0.304l0.341,0.305l0.34,0.306l0.339,0.308l0.336,0.308l0.334,0.308l0.333,0.31l0.331,0.31l0.329,0.311l0.328,0.313l0.326,0.313l0.323,0.313l0.322,0.315l0.321,0.317l0.318,0.316l0.316,0.317l0.315,0.319l0.314,0.321l0.31,0.32l0.308,0.321l0.307,0.322l0.305,0.323l0.303,0.324l0.3,0.325l0.3,0.327l0.297,0.327l0.294,0.327l0.293,0.329l0.291,0.331l0.288,0.331l0.287,0.331l0.284,0.333l0.282,0.334l0.28,0.334l0.278,0.337l0.275,0.336l0.274,0.339l0.271,0.338l0.269,0.34l0.266,0.341l0.264,0.341l0.263,0.345l0.259,0.343l0.257,0.345l0.255,0.346l0.252,0.347l0.247,0.344l0.346,0.486l0.34,0.482l0.339,0.482l0.336,0.481l0.335,0.482l0.332,0.482l0.33,0.481l0.329,0.48l0.327,0.481l0.326,0.48l0.324,0.48l0.324,0.482l0.639,0.954l0.636,0.954l0.633,0.952l0.628,0.947l1.248,1.884l0.621,0.935l0.62,0.931l0.62,0.927l0.308,0.459l0.313,0.465l0.221,0.347l0.203,0.359l0.185,0.368l0.165,0.378l0.146,0.385l0.125,0.392l0.105,0.399l0.085,0.403l0.063,0.407l0.043,0.41l0.021,0.411l0,0.412l-0.021,0.412l-0.042,0.409l-0.063,0.407l-0.084,0.404l-0.105,0.398l-0.125,0.393l-0.145,0.385l-0.165,0.378l-0.184,0.368l-0.203,0.359l-0.22,0.348l-0.239,0.336l-0.255,0.323l-0.272,0.309l-0.288,0.296l-0.302,0.279l-0.316,0.265l-0.329,0.247l-0.342,0.23l-0.353,0.212l-0.364,0.194l-0.373,0.175l-0.381,0.155l-0.389,0.136l-0.396,0.115l-0.401,0.095l-0.405,0.074l-0.409,0.053l-0.41,0.032l-0.412,0.011l-0.412,-0.01l-0.411,-0.032l-0.408,-0.053l-0.406,-0.073l-0.401,-0.095l-0.395,-0.115l-0.389,-0.135l-0.382,-0.155l-0.373,-0.174l-0.364,-0.194l-0.353,-0.212l-0.342,-0.229l-0.33,-0.247l-0.316,-0.264l-0.303,-0.28l-0.287,-0.295l-0.273,-0.309l-0.255,-0.323l-0.239,-0.336l-0.319,-0.473l-0.323,-0.48l-0.638,-0.954l-0.634,-0.953l-0.632,-0.951l-1.251,-1.889l-0.622,-0.939l-0.621,-0.933l-0.619,-0.929l-0.62,-0.925l-0.308,-0.457l-0.309,-0.458l-0.309,-0.456l-0.31,-0.455l-0.309,-0.453l-0.311,-0.452l-0.31,-0.449l-0.311,-0.448l-0.311,-0.446l-0.312,-0.444l-0.312,-0.442l-0.31,-0.436l-0.197,-0.274l-0.196,-0.27l-0.199,-0.27l-0.202,-0.27l-0.204,-0.271l-0.205,-0.269l-0.209,-0.27l-0.211,-0.27l-0.214,-0.27l-0.216,-0.27l-0.218,-0.27l-0.221,-0.27l-0.223,-0.27l-0.226,-0.27l-0.228,-0.27l-0.23,-0.27l-0.233,-0.269l-0.235,-0.27l-0.237,-0.269l-0.24,-0.269l-0.243,-0.271l-0.244,-0.269l-0.246,-0.267l-0.249,-0.27l-0.251,-0.269l-0.254,-0.269l-0.255,-0.268l-0.258,-0.268l-0.261,-0.269l-0.261,-0.267l-0.264,-0.268l-0.267,-0.268l-0.269,-0.267l-0.27,-0.267l-0.273,-0.267l-0.276,-0.267l-0.277,-0.266l-0.278,-0.266l-0.282,-0.266l-0.284,-0.266l-0.285,-0.265l-0.288,-0.266l-0.289,-0.265l-0.291,-0.264l-0.293,-0.263l-0.296,-0.265l-0.297,-0.264l-0.3,-0.263l-0.301,-0.264l-0.302,-0.262l-0.306,-0.262l-0.307,-0.263l-0.308,-0.261l-0.311,-0.262l-0.312,-0.261l-0.314,-0.26l-0.316,-0.26l-0.318,-0.26l-0.319,-0.26l-0.322,-0.259l-0.324,-0.259l-0.324,-0.259l-0.326,-0.257l-0.328,-0.258l-0.33,-0.256l-0.332,-0.257l-0.334,-0.257l-0.334,-0.256l-0.336,-0.255l-0.339,-0.255l-0.34,-0.255l-0.341,-0.254l-0.342,-0.254l-0.345,-0.253l-0.346,-0.253l-0.347,-0.252l-0.348,-0.251l-0.351,-0.252l-0.353,-0.251l-0.353,-0.251l-0.354,-0.249l-0.357,-0.249l-0.358,-0.25l-0.358,-0.248l-0.36,-0.248l-0.362,-0.247l-0.363,-0.247l-0.365,-0.246l-0.365,-0.246l-0.367,-0.245l-0.369,-0.245l-0.369,-0.244l-0.372,-0.244l-0.371,-0.243l-0.374,-0.243l-0.374,-0.242l-0.375,-0.24l-0.378,-0.242l-0.378,-0.24l-0.379,-0.24l-0.38,-0.239l-0.382,-0.238l-0.383,-0.239l-0.383,-0.237l-0.385,-0.237l-0.386,-0.236l-0.387,-0.236l-0.387,-0.235l-0.389,-0.234l-0.389,-0.234l-0.392,-0.233l-0.392,-0.233l-0.393,-0.232l-0.393,-0.231l-0.395,-0.231l-0.395,-0.23l-0.397,-0.23l-0.397,-0.229l-0.398,-0.228l-0.399,-0.227l-0.4,-0.228l-0.401,-0.226l-0.401,-0.225l-0.402,-0.226l-0.403,-0.224l-0.404,-0.223l-0.404,-0.224l-0.412,-0.226l-0.356,-0.207l-0.345,-0.225l-0.332,-0.243l-0.32,-0.26l-0.306,-0.276l-0.292,-0.291l-0.276,-0.306l-0.259,-0.32l-0.243,-0.332l-0.226,-0.345l-0.208,-0.356l-0.189,-0.366l-0.17,-0.375l-0.15,-0.384l-0.13,-0.39l-0.111,-0.397l-0.089,-0.403l-0.069,-0.406l-0.048,-0.409l-0.026,-0.411l-0.006,-0.412l0.016,-0.412l0.037,-0.41l0.058,-0.408l0.079,-0.404l0.1,-0.4l0.12,-0.394l0.14,-0.387l0.16,-0.38l0.18,-0.371l0.198,-0.361l0.216,-0.35l0.235,-0.339l0.251,-0.327l0.268,-0.313l0.283,-0.298l0.299,-0.284l0.313,-0.268l0.326,-0.252l0.339,-0.234l0.35,-0.217l0.361,-0.198l0.371,-0.18l0.38,-0.16l0.387,-0.14l0.394,-0.121l0.4,-0.1l0.404,-0.079l0.408,-0.058l0.41,-0.037l0.412,-0.016l0.412,0.005Z" style="fill:#1f5eff;"/><path d="M58.229,188.456l1.82,0.005l0.9,0.002l0.897,0.001l13.422,0l0.457,0.013l0.455,0.039l0.452,0.065l0.448,0.091l0.442,0.116l0.434,0.141l0.426,0.166l0.416,0.19l0.404,0.213l0.391,0.236l0.377,0.258l0.362,0.279l0.345,0.299l0.328,0.319l0.309,0.336l0.289,0.354l0.269,0.37l0.247,0.384l0.225,0.398l0.201,0.41l0.178,0.421l0.154,0.43l0.128,0.438l0.104,0.445l0.078,0.451l0.052,0.454l0.026,0.456l0,0.457l-0.026,0.456l-0.052,0.454l-0.078,0.45l-0.104,0.445l-0.128,0.438l-0.154,0.431l-0.178,0.421l-0.201,0.41l-0.225,0.397l-0.247,0.385l-0.269,0.369l-0.289,0.354l-0.309,0.337l-0.328,0.318l-0.345,0.299l-0.362,0.279l-0.377,0.258l-0.391,0.236l-0.404,0.213l-0.416,0.19l-0.426,0.166l-0.434,0.141l-0.442,0.116l-0.448,0.091l-0.452,0.065l-0.455,0.039l-0.457,0.013l-13.429,0l-0.918,-0.001l-0.915,-0.002l-1.812,-0.005l-0.895,-0.002l-0.891,0.001l-0.44,0.001l-0.44,0.002l-0.437,0.002l-0.434,0.004l-0.375,0.004l-0.371,0.005l-0.371,0.007l-0.368,0.007l-0.368,0.009l-0.366,0.01l-0.365,0.011l-0.364,0.012l-0.363,0.013l-0.363,0.015l-0.36,0.015l-0.359,0.017l-0.36,0.018l-0.356,0.019l-0.357,0.02l-0.356,0.022l-0.353,0.022l-0.354,0.024l-0.354,0.025l-0.35,0.026l-0.352,0.027l-0.349,0.028l-0.348,0.029l-0.349,0.031l-0.348,0.031l-0.345,0.033l-0.345,0.034l-0.346,0.035l-0.344,0.036l-0.343,0.038l-0.342,0.038l-0.341,0.039l-0.34,0.041l-0.341,0.042l-0.341,0.043l-0.338,0.044l-0.338,0.045l-0.338,0.047l-0.337,0.047l-0.337,0.049l-0.336,0.049l-0.335,0.051l-0.335,0.052l-0.333,0.053l-0.335,0.054l-0.333,0.056l-0.333,0.056l-0.333,0.058l-0.331,0.058l-0.332,0.06l-0.331,0.061l-0.332,0.062l-0.33,0.064l-0.33,0.064l-0.331,0.066l-0.328,0.066l-0.329,0.068l-0.331,0.069l-0.328,0.07l-0.328,0.071l-0.329,0.072l-0.328,0.073l-0.328,0.075l-0.329,0.076l-0.328,0.077l-0.326,0.077l-0.328,0.079l-0.329,0.081l-0.327,0.081l-0.326,0.083l-0.328,0.083l-0.328,0.085l-0.328,0.086l-0.328,0.088l-0.326,0.087l-0.327,0.09l-0.329,0.091l-0.327,0.091l-0.328,0.093l-0.329,0.095l-0.328,0.095l-0.327,0.096l-0.329,0.098l-0.328,0.098l-0.33,0.1l-0.329,0.101l-0.329,0.102l-0.33,0.104l-0.33,0.104l-0.331,0.106l-0.33,0.107l-0.33,0.108l-0.332,0.109l-0.331,0.111l-0.333,0.112l-0.332,0.112l-0.332,0.114l-0.334,0.115l-0.334,0.117l-0.334,0.117l-0.333,0.119l-0.336,0.12l-0.337,0.121l-0.334,0.122l-0.336,0.124l-0.338,0.125l-0.339,0.126l-0.338,0.127l-0.338,0.128l-0.34,0.13l-0.34,0.13l-0.341,0.132l-0.34,0.133l-0.342,0.134l-0.344,0.136l-0.343,0.137l-0.345,0.138l-0.344,0.139l-0.345,0.14l-0.347,0.142l-0.348,0.143l-0.347,0.143l-0.348,0.146l-0.35,0.146l-0.351,0.148l-0.35,0.148l-0.352,0.15l-0.362,0.155l-0.425,0.168l-0.433,0.144l-0.442,0.118l-0.447,0.093l-0.452,0.067l-0.455,0.042l-0.457,0.015l-0.456,-0.011l-0.456,-0.036l-0.452,-0.063l-0.449,-0.089l-0.442,-0.113l-0.435,-0.139l-0.427,-0.164l-0.417,-0.188l-0.405,-0.211l-0.392,-0.234l-0.379,-0.256l-0.363,-0.277l-0.347,-0.298l-0.329,-0.316l-0.311,-0.335l-0.291,-0.353l-0.27,-0.368l-0.249,-0.383l-0.227,-0.397l-0.203,-0.409l-0.18,-0.42l-0.156,-0.429l-0.131,-0.438l-0.106,-0.444l-0.08,-0.45l-0.054,-0.454l-0.029,-0.456l-0.002,-0.457l0.024,-0.456l0.05,-0.454l0.075,-0.451l0.102,-0.445l0.126,-0.439l0.151,-0.431l0.176,-0.422l0.2,-0.411l0.222,-0.399l0.245,-0.386l0.267,-0.371l0.288,-0.355l0.307,-0.338l0.326,-0.32l0.344,-0.301l0.36,-0.281l0.376,-0.26l0.39,-0.238l0.403,-0.215l0.415,-0.192l0.373,-0.16l0.382,-0.163l0.383,-0.162l0.381,-0.161l0.38,-0.159l0.381,-0.159l0.381,-0.157l0.379,-0.156l0.379,-0.155l0.379,-0.154l0.38,-0.153l0.378,-0.152l0.377,-0.15l0.378,-0.149l0.377,-0.149l0.378,-0.147l0.377,-0.146l0.377,-0.145l0.377,-0.143l0.377,-0.143l0.376,-0.141l0.375,-0.14l0.375,-0.139l0.377,-0.138l0.377,-0.138l0.375,-0.135l0.374,-0.134l0.376,-0.134l0.377,-0.132l0.374,-0.13l0.375,-0.13l0.376,-0.129l0.375,-0.127l0.375,-0.126l0.375,-0.125l0.374,-0.124l0.376,-0.122l0.376,-0.122l0.375,-0.12l0.376,-0.119l0.374,-0.117l0.376,-0.117l0.376,-0.115l0.375,-0.114l0.377,-0.113l0.375,-0.112l0.377,-0.111l0.377,-0.109l0.376,-0.108l0.376,-0.106l0.377,-0.106l0.377,-0.104l0.377,-0.103l0.379,-0.102l0.377,-0.1l0.378,-0.1l0.378,-0.098l0.378,-0.096l0.38,-0.096l0.379,-0.094l0.378,-0.093l0.38,-0.092l0.382,-0.09l0.38,-0.09l0.38,-0.087l0.381,-0.087l0.381,-0.085l0.382,-0.084l0.383,-0.083l0.383,-0.082l0.382,-0.079l0.383,-0.079l0.386,-0.078l0.383,-0.076l0.385,-0.075l0.386,-0.074l0.385,-0.072l0.386,-0.071l0.387,-0.07l0.388,-0.069l0.387,-0.067l0.388,-0.066l0.389,-0.064l0.389,-0.063l0.39,-0.062l0.391,-0.061l0.391,-0.059l0.392,-0.058l0.392,-0.057l0.392,-0.055l0.393,-0.054l0.395,-0.053l0.396,-0.051l0.393,-0.05l0.396,-0.049l0.397,-0.047l0.398,-0.046l0.399,-0.045l0.398,-0.043l0.399,-0.042l0.399,-0.041l0.402,-0.039l0.402,-0.038l0.402,-0.037l0.402,-0.035l0.404,-0.034l0.406,-0.033l0.404,-0.031l0.407,-0.03l0.406,-0.029l0.407,-0.027l0.41,-0.026l0.409,-0.024l0.41,-0.024l0.412,-0.022l0.412,-0.02l0.413,-0.02l0.414,-0.018l0.414,-0.016l0.416,-0.015l0.416,-0.014l0.417,-0.013l0.419,-0.011l0.42,-0.01l0.42,-0.009l0.421,-0.007l0.422,-0.006l0.422,-0.004l0.473,-0.004l0.471,-0.003l0.467,-0.002l0.468,-0.001l0.925,-0.001l0.92,0.002Z" style="fill:#1f5eff;"/><path d="M88.997,219.627l0.432,0.038l0.429,0.061l0.425,0.085l0.419,0.107l0.414,0.13l0.405,0.152l0.397,0.174l0.387,0.195l0.376,0.216l0.363,0.236l0.35,0.255l0.336,0.274l0.321,0.291l0.304,0.309l0.287,0.324l0.269,0.34l0.251,0.353l0.23,0.367l0.211,0.379l0.19,0.389l0.168,0.399l0.147,0.408l0.124,0.415l0.102,0.421l0.079,0.426l0.055,0.43l0.033,0.432l0.008,0.433l-0.014,0.433l-0.039,0.432l-0.061,0.429l-0.084,0.425l-0.108,0.419l-0.13,0.414l-0.152,0.405l-0.174,0.397l-0.195,0.387l-0.216,0.376l-0.236,0.363l-0.255,0.35l-0.274,0.336l-0.291,0.321l-0.309,0.304l-0.324,0.287l-0.34,0.269l-0.353,0.251l-0.367,0.231l-0.379,0.21l-0.389,0.19l-0.399,0.169l-0.408,0.146l-0.415,0.124l-0.421,0.102l-0.426,0.079l-0.512,0.08l-0.505,0.081l-0.506,0.081l-0.505,0.082l-0.506,0.084l-0.506,0.084l-0.505,0.086l-0.506,0.086l-0.506,0.088l-0.506,0.088l-0.505,0.09l-0.505,0.091l-0.506,0.092l-0.505,0.093l-0.504,0.094l-0.506,0.095l-0.504,0.096l-0.504,0.098l-0.504,0.098l-0.503,0.1l-0.503,0.101l-0.503,0.102l-0.502,0.103l-0.501,0.104l-0.502,0.105l-0.5,0.107l-0.499,0.108l-0.5,0.109l-0.499,0.11l-0.497,0.111l-0.498,0.112l-0.496,0.114l-0.496,0.115l-0.495,0.116l-0.493,0.117l-0.494,0.119l-0.492,0.119l-0.491,0.121l-0.491,0.122l-0.489,0.123l-0.488,0.125l-0.487,0.126l-0.486,0.127l-0.485,0.128l-0.483,0.13l-0.484,0.131l-0.481,0.132l-0.479,0.133l-0.479,0.135l-0.477,0.136l-0.477,0.137l-0.475,0.139l-0.472,0.139l-0.472,0.141l-0.47,0.143l-0.469,0.143l-0.467,0.145l-0.465,0.146l-0.464,0.148l-0.463,0.149l-0.46,0.15l-0.459,0.151l-0.457,0.153l-0.455,0.154l-0.454,0.156l-0.451,0.157l-0.449,0.157l-0.448,0.16l-0.446,0.161l-0.444,0.162l-0.442,0.163l-0.44,0.165l-0.437,0.166l-0.435,0.167l-0.433,0.169l-0.431,0.17l-0.429,0.171l-0.427,0.173l-0.424,0.174l-0.422,0.175l-0.419,0.177l-0.418,0.178l-0.416,0.18l-0.411,0.18l-0.409,0.182l-0.409,0.183l-0.404,0.185l-0.402,0.186l-0.4,0.187l-0.397,0.188l-0.394,0.19l-0.391,0.191l-0.39,0.193l-0.385,0.193l-0.383,0.196l-0.38,0.196l-0.378,0.197l-0.375,0.199l-0.371,0.2l-0.369,0.202l-0.366,0.203l-0.362,0.203l-0.36,0.206l-0.356,0.206l-0.359,0.211l-0.171,0.101l-0.174,0.104l-0.173,0.105l-0.174,0.106l-0.172,0.105l-0.171,0.105l-0.172,0.107l-0.17,0.106l-0.168,0.106l-0.169,0.108l-0.168,0.107l-0.166,0.108l-0.165,0.107l-0.165,0.108l-0.166,0.11l-0.163,0.108l-0.16,0.108l-0.162,0.109l-0.163,0.111l-0.158,0.109l-0.16,0.111l-0.159,0.111l-0.156,0.109l-0.158,0.112l-0.155,0.111l-0.154,0.111l-0.155,0.113l-0.153,0.112l-0.152,0.112l-0.152,0.113l-0.149,0.112l-0.15,0.114l-0.15,0.114l-0.146,0.113l-0.146,0.113l-0.147,0.115l-0.145,0.115l-0.144,0.114l-0.145,0.117l-0.143,0.115l-0.138,0.113l-0.142,0.117l-0.141,0.117l-0.139,0.117l-0.136,0.115l-0.148,0.127l-0.337,0.272l-0.351,0.254l-0.365,0.234l-0.376,0.214l-0.388,0.194l-0.397,0.172l-0.407,0.151l-0.413,0.128l-0.421,0.106l-0.425,0.083l-0.429,0.06l-0.432,0.036l-0.433,0.013l-0.433,-0.01l-0.432,-0.034l-0.429,-0.058l-0.426,-0.08l-0.421,-0.103l-0.414,-0.126l-0.407,-0.149l-0.399,-0.17l-0.389,-0.191l-0.377,-0.212l-0.366,-0.233l-0.353,-0.251l-0.338,-0.271l-0.324,-0.288l-0.307,-0.306l-0.29,-0.322l-0.272,-0.336l-0.254,-0.352l-0.235,-0.364l-0.214,-0.377l-0.194,-0.387l-0.172,-0.398l-0.15,-0.406l-0.129,-0.414l-0.106,-0.42l-0.082,-0.425l-0.06,-0.429l-0.037,-0.432l-0.012,-0.433l0.01,-0.433l0.034,-0.432l0.057,-0.43l0.081,-0.426l0.103,-0.42l0.126,-0.415l0.148,-0.407l0.17,-0.398l0.192,-0.389l0.212,-0.378l0.232,-0.366l0.252,-0.352l0.271,-0.339l0.288,-0.323l0.305,-0.307l0.322,-0.291l0.179,-0.152l0.192,-0.163l0.192,-0.161l0.191,-0.158l0.192,-0.159l0.196,-0.16l0.195,-0.158l0.194,-0.155l0.196,-0.157l0.197,-0.156l0.197,-0.154l0.199,-0.154l0.2,-0.154l0.199,-0.152l0.2,-0.151l0.202,-0.152l0.202,-0.15l0.202,-0.15l0.204,-0.149l0.202,-0.147l0.206,-0.148l0.206,-0.148l0.204,-0.145l0.209,-0.146l0.206,-0.144l0.207,-0.144l0.211,-0.145l0.207,-0.141l0.209,-0.141l0.213,-0.143l0.212,-0.141l0.21,-0.139l0.213,-0.139l0.214,-0.139l0.213,-0.138l0.215,-0.138l0.213,-0.135l0.217,-0.137l0.217,-0.136l0.215,-0.134l0.218,-0.134l0.219,-0.134l0.217,-0.132l0.22,-0.132l0.22,-0.132l0.225,-0.134l0.437,-0.257l0.445,-0.257l0.447,-0.255l0.449,-0.253l0.451,-0.25l0.453,-0.247l0.456,-0.246l0.457,-0.242l0.46,-0.241l0.462,-0.238l0.463,-0.236l0.467,-0.234l0.467,-0.232l0.469,-0.229l0.472,-0.227l0.474,-0.225l0.475,-0.222l0.477,-0.221l0.479,-0.218l0.48,-0.216l0.482,-0.215l0.485,-0.212l0.486,-0.21l0.486,-0.207l0.49,-0.206l0.49,-0.204l0.493,-0.202l0.494,-0.2l0.494,-0.198l0.498,-0.196l0.498,-0.194l0.5,-0.192l0.501,-0.191l0.503,-0.188l0.504,-0.186l0.505,-0.185l0.507,-0.182l0.507,-0.181l0.51,-0.179l0.511,-0.178l0.511,-0.175l0.513,-0.174l0.514,-0.171l0.516,-0.171l0.516,-0.168l0.517,-0.166l0.518,-0.165l0.52,-0.164l0.521,-0.161l0.521,-0.16l0.522,-0.158l0.524,-0.157l0.525,-0.155l0.525,-0.153l0.526,-0.151l0.527,-0.151l0.528,-0.148l0.528,-0.147l0.529,-0.145l0.53,-0.144l0.531,-0.142l0.532,-0.141l0.531,-0.139l0.533,-0.137l0.534,-0.137l0.534,-0.134l0.534,-0.133l0.535,-0.132l0.535,-0.13l0.535,-0.129l0.537,-0.127l0.536,-0.126l0.537,-0.124l0.538,-0.123l0.538,-0.122l0.538,-0.12l0.538,-0.119l0.538,-0.117l0.539,-0.116l0.54,-0.115l0.539,-0.113l0.539,-0.112l0.539,-0.111l0.54,-0.11l0.539,-0.108l0.54,-0.107l0.539,-0.105l0.54,-0.104l0.54,-0.103l0.538,-0.102l0.54,-0.101l0.54,-0.099l0.538,-0.098l0.539,-0.097l0.539,-0.095l0.538,-0.095l0.538,-0.093l0.538,-0.092l0.538,-0.091l0.537,-0.09l0.536,-0.088l0.537,-0.087l0.536,-0.087l0.535,-0.085l0.528,-0.083l0.43,-0.055l0.432,-0.032l0.433,-0.009l0.433,0.015Z" style="fill:#1f5eff;"/><path d="M129.868,297.116c5.656,-7.984 2.619,-19.223 -2.677,-25.904c-5.614,-7.083 -28.9,-17.083 -31.005,-16.589c-30.104,7.066 -23.933,65.158 -5.217,69.692c11.196,2.712 32.959,-12.965 38.899,-27.199" style="fill:#a34cff;"/><path d="M151.255,276.244c-6.875,6.987 -5.702,18.568 -1.56,26.005c4.389,7.883 25.741,21.449 27.898,21.295c30.847,-2.207 34.183,-60.551 16.453,-67.995c-10.606,-4.452 -34.621,7.58 -42.791,20.695" style="fill:#a34cff;"/><path d="M129.575,297.777c-4.245,-3.153 -6.829,-12.552 -4.908,-16.867c1.922,-4.316 10.024,-9.222 16.435,-9.026c7.043,0.216 13.804,5.877 13.81,10.27c0.012,9.418 -7.131,13.668 -11.73,16.009c-3.936,2.004 -9.896,2.371 -13.607,-0.386Z" style="fill:#8410ff;"/><path d="M124.877,106.609c7.583,1.005 15.469,5.363 22.748,3.014c7.383,-2.383 19.102,-11.701 21.551,-17.311c2.364,-5.416 -3.765,-11.312 -6.857,-16.348c-8.719,-14.202 -36.014,-55.04 -45.457,-68.866c-3.384,-4.954 -9.014,-9.077 -14.697,-6.087c-4.52,2.378 -1.688,10.963 0,17.765c4.487,18.073 15.142,58.555 22.712,87.833" style="fill:#000631;"/><path d="M127.423,107.275c6.267,3.021 16.143,4.09 22.097,1.471c5.824,-2.561 12.224,-8.596 14.232,-13.196c1.939,-4.442 -3.088,-9.277 -5.623,-13.407c-7.151,-11.647 -29.535,-45.137 -37.279,-56.475c-2.775,-4.063 -6.539,-8.653 -9.186,-11.553c-1.997,-2.189 -5.642,-6.556 -6.694,-5.851c-1.053,0.706 -0.094,6.755 0.379,10.086c0.638,4.496 2.064,11.316 3.449,16.895c3.679,14.821 12.417,48.02 18.625,72.03" style="fill:#f540ff;"/><path d="M155.135,72.852l-2.46,0.268c-0.149,0.175 -0.297,0.351 -0.444,0.527c-0.122,0.149 -0.244,0.299 -0.364,0.45c-0.095,0.12 -0.188,0.243 -0.283,0.364c-0.1,0.125 -0.202,0.249 -0.305,0.372c-0.807,0.939 -1.709,1.791 -2.654,2.591c-0.984,0.833 -2.013,1.613 -3.074,2.345c-0.996,0.688 -2.026,1.325 -3.076,1.927c-1.46,0.837 -2.968,1.595 -4.532,2.218c-1.437,0.571 -2.919,1.023 -4.431,1.346c-3.553,0.761 -7.211,0.812 -10.83,0.824l-4.568,0.006l-0.009,-7.5c1.777,-0.003 3.555,0 5.332,-0.009c1.361,-0.011 2.722,-0.031 4.082,-0.108c1.525,-0.086 3.051,-0.244 4.545,-0.573c1.06,-0.233 2.099,-0.555 3.107,-0.956c1.183,-0.47 2.322,-1.044 3.429,-1.672c0.846,-0.48 1.679,-0.987 2.484,-1.534c0.861,-0.585 1.697,-1.207 2.497,-1.872c0.638,-0.529 1.261,-1.085 1.817,-1.7c0.09,-0.101 0.178,-0.202 0.263,-0.307c0.113,-0.139 0.22,-0.283 0.331,-0.424c0.15,-0.188 0.301,-0.373 0.453,-0.559c0.4,-0.482 0.804,-0.963 1.235,-1.419c0.427,-0.451 0.887,-0.885 1.435,-1.186c0.087,-0.048 0.176,-0.093 0.265,-0.135c0.05,-0.024 0.102,-0.043 0.153,-0.063c0.143,-0.058 0.286,-0.106 0.434,-0.15l0.016,-0.004c0.175,-0.044 0.218,-0.058 0.396,-0.088c0.067,-0.011 0.134,-0.018 0.201,-0.027l3.742,-0.408c0.271,2.485 0.542,4.971 0.813,7.456Z" style="fill:#000631;fill-rule:nonzero;"/><path d="M142.076,49.826l-1.683,0.213c-0.129,0.18 -0.254,0.363 -0.379,0.546c-0.114,0.169 -0.228,0.337 -0.338,0.508c-0.078,0.121 -0.154,0.242 -0.233,0.362c-0.073,0.108 -0.147,0.215 -0.222,0.321c-0.729,1.009 -1.573,1.928 -2.464,2.795c-0.906,0.879 -1.863,1.711 -2.871,2.471c-1.392,1.049 -2.848,2.022 -4.408,2.802c-1.132,0.565 -2.315,1.022 -3.537,1.348c-1.101,0.295 -2.227,0.484 -3.36,0.601c-1.388,0.143 -2.783,0.181 -4.176,0.198l-0.302,0.003l-0.609,0.003l-3.374,0.005l-0.008,-5.5c1.317,-0.002 2.634,-0.001 3.951,-0.008c1.1,-0.01 2.202,-0.03 3.3,-0.114c1.063,-0.081 2.125,-0.225 3.156,-0.501c0.668,-0.178 1.321,-0.412 1.951,-0.695c1.292,-0.58 2.491,-1.351 3.633,-2.184c0.307,-0.224 0.611,-0.452 0.909,-0.689c0.664,-0.53 1.303,-1.093 1.912,-1.685c0.578,-0.562 1.136,-1.15 1.63,-1.789c0.111,-0.144 0.218,-0.291 0.319,-0.442c0.12,-0.179 0.233,-0.363 0.351,-0.543c0.125,-0.187 0.251,-0.374 0.379,-0.56c0.252,-0.363 0.506,-0.726 0.778,-1.076c0.301,-0.385 0.625,-0.753 1.031,-1.032c0.208,-0.143 0.439,-0.249 0.675,-0.336l0.013,-0.005c0.119,-0.037 0.148,-0.049 0.269,-0.077c0.122,-0.028 0.154,-0.03 0.277,-0.049l2.739,-0.347c0.23,1.819 0.46,3.638 0.691,5.456Z" style="fill:#000631;fill-rule:nonzero;"/><path d="M127.971,33.439l-1.258,0.161c-0.101,0.134 -0.201,0.27 -0.299,0.406c-0.091,0.128 -0.179,0.256 -0.268,0.385l-0.1,0.139c-0.105,0.141 -0.212,0.28 -0.325,0.416c-0.416,0.505 -0.878,0.972 -1.358,1.416c-0.387,0.358 -0.789,0.7 -1.202,1.029c-0.585,0.466 -1.197,0.897 -1.826,1.302c-0.784,0.504 -1.6,0.961 -2.455,1.333c-0.673,0.292 -1.368,0.53 -2.08,0.708c-1.886,0.471 -3.841,0.504 -5.774,0.514l-2.427,0.003l-0.005,-4c0.94,-0.001 1.88,-0.001 2.819,-0.005c0.754,-0.008 1.508,-0.02 2.259,-0.073c0.726,-0.052 1.452,-0.143 2.159,-0.32c0.454,-0.113 0.898,-0.262 1.33,-0.442c0.703,-0.295 1.369,-0.671 2.01,-1.083c0.596,-0.383 1.171,-0.795 1.719,-1.245c0.368,-0.301 0.724,-0.617 1.064,-0.949c0.287,-0.282 0.566,-0.575 0.81,-0.895c0.07,-0.091 0.134,-0.185 0.198,-0.28c0.095,-0.136 0.192,-0.271 0.289,-0.406c0.205,-0.28 0.413,-0.557 0.633,-0.824c0.191,-0.231 0.397,-0.454 0.641,-0.628c0.208,-0.148 0.443,-0.259 0.69,-0.324c0.084,-0.022 0.169,-0.037 0.256,-0.05l1.991,-0.255c0.169,1.322 0.339,2.645 0.509,3.967Z" style="fill:#000631;fill-rule:nonzero;"/></svg>